<svg xmlns="http://www.w3.org/2000/svg" xmlns:xlink="http://www.w3.org/1999/xlink" width="64" zoomAndPan="magnify" viewBox="0 0 48 48" height="64" preserveAspectRatio="xMidYMid meet" version="1.0"><defs><clipPath id="44b6a3c785"><path d="M 7.542969 21 L 40.605469 21 L 40.605469 37.761719 L 7.542969 37.761719 Z M 7.542969 21 " clip-rule="nonzero"/></clipPath><clipPath id="8377a153f4"><path d="M 13 4.703125 L 35 4.703125 L 35 18 L 13 18 Z M 13 4.703125 " clip-rule="nonzero"/></clipPath></defs><path fill="#000000" d="M 11.238281 19.730469 C 11.238281 19.933594 11.199219 20.125 11.121094 20.3125 C 11.042969 20.496094 10.9375 20.660156 10.792969 20.800781 C 10.652344 20.941406 10.488281 21.050781 10.304688 21.128906 C 10.117188 21.207031 9.925781 21.246094 9.726562 21.246094 C 9.523438 21.246094 9.332031 21.207031 9.144531 21.128906 C 8.960938 21.050781 8.796875 20.941406 8.65625 20.800781 C 8.515625 20.660156 8.40625 20.496094 8.328125 20.3125 C 8.25 20.125 8.214844 19.933594 8.214844 19.730469 C 8.214844 19.53125 8.25 19.339844 8.328125 19.152344 C 8.40625 18.96875 8.515625 18.804688 8.65625 18.664062 C 8.796875 18.523438 8.960938 18.414062 9.144531 18.335938 C 9.332031 18.257812 9.523438 18.21875 9.726562 18.21875 C 9.925781 18.21875 10.117188 18.257812 10.304688 18.335938 C 10.488281 18.414062 10.652344 18.523438 10.792969 18.664062 C 10.9375 18.804688 11.042969 18.96875 11.121094 19.152344 C 11.199219 19.339844 11.238281 19.53125 11.238281 19.730469 Z M 11.238281 19.730469 " fill-opacity="1" fill-rule="nonzero"/><path fill="#000000" d="M 39.820312 19.152344 C 39.894531 19.339844 39.933594 19.53125 39.933594 19.730469 C 39.933594 19.933594 39.894531 20.125 39.820312 20.308594 C 39.742188 20.496094 39.632812 20.660156 39.492188 20.800781 C 39.351562 20.941406 39.1875 21.050781 39 21.128906 C 38.816406 21.207031 38.621094 21.242188 38.421875 21.242188 C 38.222656 21.242188 38.027344 21.207031 37.84375 21.128906 C 37.660156 21.050781 37.496094 20.941406 37.351562 20.800781 C 37.210938 20.660156 37.101562 20.496094 37.027344 20.308594 C 36.949219 20.125 36.910156 19.933594 36.910156 19.730469 C 36.910156 19.53125 36.949219 19.339844 37.027344 19.152344 C 37.101562 18.96875 37.210938 18.804688 37.351562 18.664062 C 37.496094 18.519531 37.660156 18.410156 37.84375 18.335938 C 38.027344 18.257812 38.222656 18.21875 38.421875 18.21875 C 38.621094 18.21875 38.816406 18.257812 39 18.335938 C 39.1875 18.410156 39.351562 18.519531 39.492188 18.664062 C 39.632812 18.804688 39.742188 18.96875 39.820312 19.152344 Z M 39.820312 19.152344 " fill-opacity="1" fill-rule="nonzero"/><path fill="#000000" d="M 25.46875 19.152344 C 25.546875 19.339844 25.585938 19.53125 25.585938 19.730469 C 25.585938 19.933594 25.546875 20.125 25.46875 20.308594 C 25.394531 20.496094 25.285156 20.660156 25.144531 20.800781 C 25 20.941406 24.835938 21.050781 24.652344 21.128906 C 24.46875 21.207031 24.273438 21.242188 24.074219 21.242188 C 23.875 21.242188 23.679688 21.207031 23.496094 21.128906 C 23.308594 21.050781 23.144531 20.941406 23.003906 20.800781 C 22.863281 20.660156 22.753906 20.496094 22.675781 20.308594 C 22.601562 20.125 22.5625 19.933594 22.5625 19.730469 C 22.5625 19.53125 22.601562 19.339844 22.675781 19.152344 C 22.753906 18.96875 22.863281 18.804688 23.003906 18.664062 C 23.144531 18.519531 23.308594 18.410156 23.496094 18.335938 C 23.679688 18.257812 23.875 18.21875 24.074219 18.21875 C 24.273438 18.21875 24.46875 18.257812 24.652344 18.335938 C 24.835938 18.410156 25 18.519531 25.144531 18.664062 C 25.285156 18.804688 25.394531 18.96875 25.46875 19.152344 Z M 25.46875 19.152344 " fill-opacity="1" fill-rule="nonzero"/><g clip-path="url(#44b6a3c785)"><path fill="#000000" d="M 39.6875 35.910156 L 39.464844 35.910156 L 39.464844 24.003906 L 40.367188 24.003906 C 40.5 24.003906 40.605469 23.898438 40.605469 23.765625 C 40.605469 23.636719 40.5 23.53125 40.367188 23.53125 L 39.464844 23.53125 L 39.464844 21.84375 C 39.464844 21.710938 39.355469 21.605469 39.226562 21.605469 C 39.09375 21.605469 38.988281 21.710938 38.988281 21.84375 L 38.988281 23.53125 L 37.855469 23.53125 L 37.855469 21.84375 C 37.855469 21.710938 37.75 21.605469 37.617188 21.605469 C 37.488281 21.605469 37.378906 21.710938 37.378906 21.84375 L 37.378906 23.53125 L 36.476562 23.53125 C 36.34375 23.53125 36.238281 23.636719 36.238281 23.765625 C 36.238281 23.898438 36.34375 24.003906 36.476562 24.003906 L 37.378906 24.003906 L 37.378906 24.609375 C 35.902344 26.523438 33.671875 27.621094 31.246094 27.621094 C 28.800781 27.621094 26.546875 26.5 25.066406 24.550781 C 25.066406 24.546875 25.0625 24.542969 25.058594 24.539062 C 24.996094 24.464844 24.890625 24.433594 24.796875 24.46875 C 24.703125 24.503906 24.640625 24.59375 24.640625 24.691406 L 24.640625 35.910156 L 23.507812 35.910156 L 23.507812 24.003906 L 26.019531 24.003906 C 26.148438 24.003906 26.257812 23.898438 26.257812 23.765625 C 26.257812 23.636719 26.148438 23.53125 26.019531 23.53125 L 25.113281 23.53125 L 25.113281 21.84375 C 25.113281 21.710938 25.007812 21.605469 24.875 21.605469 C 24.746094 21.605469 24.640625 21.710938 24.640625 21.84375 L 24.640625 23.53125 L 23.507812 23.53125 L 23.507812 21.84375 C 23.507812 21.710938 23.402344 21.605469 23.269531 21.605469 C 23.136719 21.605469 23.03125 21.710938 23.03125 21.84375 L 23.03125 23.53125 L 22.128906 23.53125 C 21.996094 23.53125 21.890625 23.636719 21.890625 23.765625 C 21.890625 23.898438 21.996094 24.003906 22.128906 24.003906 L 23.03125 24.003906 L 23.03125 24.609375 C 21.550781 26.523438 19.320312 27.621094 16.898438 27.621094 C 14.476562 27.621094 12.246094 26.523438 10.765625 24.609375 L 10.765625 24.003906 L 11.671875 24.003906 C 11.800781 24.003906 11.90625 23.898438 11.90625 23.765625 C 11.90625 23.636719 11.800781 23.53125 11.671875 23.53125 L 10.765625 23.53125 L 10.765625 21.84375 C 10.765625 21.710938 10.660156 21.605469 10.527344 21.605469 C 10.398438 21.605469 10.289062 21.710938 10.289062 21.84375 L 10.289062 23.53125 L 9.160156 23.53125 L 9.160156 21.84375 C 9.160156 21.710938 9.050781 21.605469 8.921875 21.605469 C 8.789062 21.605469 8.683594 21.710938 8.683594 21.84375 L 8.683594 23.53125 L 7.78125 23.53125 C 7.648438 23.53125 7.542969 23.636719 7.542969 23.765625 C 7.542969 23.898438 7.648438 24.003906 7.78125 24.003906 L 8.683594 24.003906 L 8.683594 35.910156 L 8.457031 35.910156 C 7.953125 35.910156 7.542969 36.320312 7.542969 36.828125 L 7.542969 37.527344 C 7.542969 37.65625 7.648438 37.761719 7.78125 37.761719 L 11.671875 37.761719 C 11.800781 37.761719 11.90625 37.65625 11.90625 37.527344 L 11.90625 36.828125 C 11.90625 36.320312 11.496094 35.910156 10.992188 35.910156 L 9.160156 35.910156 L 9.160156 24.003906 L 10.289062 24.003906 L 10.289062 34.917969 C 10.289062 35.050781 10.398438 35.15625 10.527344 35.15625 C 10.660156 35.15625 10.765625 35.050781 10.765625 34.917969 L 10.765625 25.355469 C 12.324219 27.105469 14.527344 28.097656 16.898438 28.097656 C 19.273438 28.097656 21.472656 27.105469 23.03125 25.355469 L 23.03125 35.910156 L 22.808594 35.910156 C 22.300781 35.910156 21.890625 36.324219 21.890625 36.828125 L 21.890625 37.527344 C 21.890625 37.65625 21.996094 37.761719 22.128906 37.761719 L 26.019531 37.761719 C 26.148438 37.761719 26.257812 37.65625 26.257812 37.527344 L 26.257812 36.828125 C 26.257812 36.320312 25.84375 35.910156 25.339844 35.910156 L 25.113281 35.910156 L 25.113281 25.355469 C 26.671875 27.105469 28.875 28.097656 31.246094 28.097656 C 33.621094 28.097656 35.820312 27.105469 37.378906 25.355469 L 37.378906 35.910156 L 37.15625 35.910156 C 36.648438 35.910156 36.238281 36.324219 36.238281 36.828125 L 36.238281 37.527344 C 36.238281 37.65625 36.34375 37.761719 36.476562 37.761719 L 40.367188 37.761719 C 40.5 37.761719 40.605469 37.65625 40.605469 37.527344 L 40.605469 36.828125 C 40.605469 36.320312 40.195312 35.910156 39.6875 35.910156 Z M 10.992188 36.386719 C 11.234375 36.386719 11.433594 36.585938 11.433594 36.828125 L 11.433594 37.289062 L 8.015625 37.289062 L 8.015625 36.828125 C 8.015625 36.585938 8.214844 36.386719 8.457031 36.386719 Z M 25.339844 36.386719 C 25.582031 36.386719 25.78125 36.585938 25.78125 36.828125 L 25.78125 37.289062 L 22.367188 37.289062 L 22.367188 36.828125 C 22.367188 36.585938 22.5625 36.386719 22.808594 36.386719 Z M 37.855469 24.003906 L 38.988281 24.003906 L 38.988281 35.910156 L 37.855469 35.910156 Z M 40.128906 37.289062 L 36.714844 37.289062 L 36.714844 36.828125 C 36.714844 36.585938 36.914062 36.386719 37.15625 36.386719 L 39.6875 36.386719 C 39.929688 36.386719 40.128906 36.585938 40.128906 36.828125 Z M 40.128906 37.289062 " fill-opacity="1" fill-rule="nonzero"/></g><g clip-path="url(#8377a153f4)"><path fill="#000000" d="M 13.796875 17.304688 L 34.351562 17.304688 C 34.480469 17.304688 34.585938 17.195312 34.585938 17.066406 L 34.585938 4.941406 C 34.585938 4.808594 34.480469 4.703125 34.351562 4.703125 L 13.796875 4.703125 C 13.664062 4.703125 13.558594 4.808594 13.558594 4.941406 L 13.558594 17.066406 C 13.558594 17.195312 13.664062 17.304688 13.796875 17.304688 Z M 34.113281 16.492188 L 32.925781 15.304688 L 32.925781 6.703125 L 34.113281 5.511719 Z M 33.777344 5.175781 L 32.589844 6.367188 L 15.558594 6.367188 L 14.371094 5.175781 Z M 32.449219 6.839844 L 32.449219 15.164062 L 15.695312 15.164062 L 15.695312 6.839844 Z M 14.035156 5.511719 L 15.222656 6.703125 L 15.222656 15.402344 C 15.222656 15.535156 15.328125 15.640625 15.460938 15.640625 L 32.589844 15.640625 L 33.777344 16.828125 L 14.371094 16.828125 L 14.796875 16.402344 C 14.890625 16.308594 14.890625 16.160156 14.796875 16.066406 C 14.703125 15.972656 14.554688 15.972656 14.460938 16.066406 L 14.035156 16.492188 Z M 14.035156 5.511719 " fill-opacity="1" fill-rule="nonzero"/></g><path fill="#000000" d="M 19.996094 13.925781 C 20.035156 13.925781 20.074219 13.914062 20.109375 13.894531 L 27.992188 9.636719 C 28.105469 9.574219 28.148438 9.429688 28.085938 9.316406 C 28.023438 9.199219 27.878906 9.15625 27.765625 9.21875 L 19.886719 13.476562 C 19.769531 13.539062 19.726562 13.683594 19.789062 13.800781 C 19.832031 13.878906 19.914062 13.925781 19.996094 13.925781 Z M 19.996094 13.925781 " fill-opacity="1" fill-rule="nonzero"/><path fill="#000000" d="M 21.5625 11 C 21.601562 11 21.640625 10.988281 21.675781 10.972656 L 26.421875 8.40625 C 26.539062 8.34375 26.582031 8.199219 26.519531 8.082031 C 26.457031 7.96875 26.3125 7.925781 26.199219 7.988281 L 21.449219 10.550781 C 21.335938 10.613281 21.292969 10.757812 21.355469 10.875 C 21.398438 10.953125 21.480469 11 21.5625 11 Z M 21.5625 11 " fill-opacity="1" fill-rule="nonzero"/><path fill="#000000" d="M 38.398438 14.261719 L 36.820312 13.46875 C 36.703125 13.40625 36.5625 13.453125 36.5 13.570312 C 36.441406 13.691406 36.488281 13.832031 36.605469 13.890625 L 38.183594 14.6875 C 38.21875 14.703125 38.253906 14.710938 38.292969 14.710938 C 38.378906 14.710938 38.460938 14.664062 38.503906 14.582031 C 38.5625 14.464844 38.515625 14.320312 38.398438 14.261719 Z M 38.398438 14.261719 " fill-opacity="1" fill-rule="nonzero"/><path fill="#000000" d="M 36.652344 8.535156 C 36.6875 8.535156 36.722656 8.527344 36.757812 8.511719 L 38.347656 7.746094 C 38.46875 7.6875 38.515625 7.546875 38.460938 7.425781 C 38.402344 7.308594 38.261719 7.257812 38.144531 7.316406 L 36.550781 8.082031 C 36.433594 8.140625 36.382812 8.28125 36.441406 8.398438 C 36.480469 8.484375 36.566406 8.535156 36.652344 8.535156 Z M 36.652344 8.535156 " fill-opacity="1" fill-rule="nonzero"/><path fill="#000000" d="M 9.855469 14.710938 C 9.890625 14.710938 9.929688 14.703125 9.960938 14.6875 L 11.539062 13.890625 C 11.65625 13.832031 11.703125 13.691406 11.644531 13.570312 C 11.585938 13.453125 11.445312 13.40625 11.328125 13.46875 L 9.746094 14.261719 C 9.628906 14.320312 9.582031 14.464844 9.644531 14.582031 C 9.683594 14.664062 9.769531 14.710938 9.855469 14.710938 Z M 9.855469 14.710938 " fill-opacity="1" fill-rule="nonzero"/><path fill="#000000" d="M 9.796875 7.746094 L 11.390625 8.511719 C 11.421875 8.527344 11.457031 8.535156 11.492188 8.535156 C 11.582031 8.535156 11.667969 8.484375 11.707031 8.402344 C 11.765625 8.28125 11.714844 8.140625 11.597656 8.082031 L 10.003906 7.316406 C 9.886719 7.257812 9.742188 7.308594 9.6875 7.425781 C 9.628906 7.546875 9.679688 7.6875 9.796875 7.746094 Z M 9.796875 7.746094 " fill-opacity="1" fill-rule="nonzero"/></svg>