<svg xmlns="http://www.w3.org/2000/svg" xmlns:xlink="http://www.w3.org/1999/xlink" width="64" zoomAndPan="magnify" viewBox="0 0 48 48" height="64" preserveAspectRatio="xMidYMid meet" version="1.0"><defs><clipPath id="7e868806e6"><path d="M 5.191406 4.703125 L 41.925781 4.703125 L 41.925781 25 L 5.191406 25 Z M 5.191406 4.703125 " clip-rule="nonzero"/></clipPath><clipPath id="1411cdca33"><path d="M 5.191406 16 L 41.925781 16 L 41.925781 39.234375 L 5.191406 39.234375 Z M 5.191406 16 " clip-rule="nonzero"/></clipPath></defs><path fill="#000000" d="M 15.132812 24.699219 C 16.960938 24.699219 18.441406 23.207031 18.441406 21.371094 C 18.441406 19.53125 16.960938 18.039062 15.132812 18.039062 C 13.300781 18.039062 11.820312 19.53125 11.820312 21.371094 C 11.820312 23.207031 13.300781 24.699219 15.132812 24.699219 Z M 15.132812 18.644531 C 16.628906 18.644531 17.839844 19.863281 17.839844 21.371094 C 17.839844 22.875 16.628906 24.09375 15.132812 24.09375 C 13.632812 24.09375 12.421875 22.875 12.421875 21.371094 C 12.421875 19.863281 13.632812 18.644531 15.132812 18.644531 Z M 15.132812 18.644531 " fill-opacity="1" fill-rule="nonzero"/><path fill="#000000" d="M 15.132812 22.582031 C 14.882812 22.582031 14.679688 22.375 14.679688 22.125 L 14.679688 21.976562 C 14.679688 21.808594 14.542969 21.671875 14.378906 21.671875 C 14.214844 21.671875 14.078125 21.808594 14.078125 21.976562 L 14.078125 22.125 C 14.078125 22.601562 14.394531 23.011719 14.832031 23.140625 L 14.832031 23.488281 C 14.832031 23.65625 14.964844 23.792969 15.132812 23.792969 C 15.296875 23.792969 15.433594 23.65625 15.433594 23.488281 L 15.433594 23.140625 C 15.867188 23.011719 16.183594 22.601562 16.183594 22.125 C 16.183594 21.726562 15.945312 21.371094 15.574219 21.226562 L 14.90625 20.960938 C 14.761719 20.90625 14.671875 20.769531 14.671875 20.621094 C 14.671875 20.371094 14.875 20.164062 15.125 20.164062 C 15.371094 20.164062 15.574219 20.371094 15.574219 20.621094 L 15.574219 20.664062 C 15.574219 20.832031 15.710938 20.96875 15.875 20.96875 C 16.042969 20.96875 16.175781 20.832031 16.175781 20.664062 L 16.175781 20.613281 C 16.175781 20.136719 15.859375 19.726562 15.425781 19.597656 L 15.425781 19.25 C 15.425781 19.082031 15.289062 18.945312 15.125 18.945312 C 14.957031 18.945312 14.824219 19.082031 14.824219 19.25 L 14.824219 19.597656 C 14.386719 19.726562 14.070312 20.136719 14.070312 20.613281 C 14.070312 21.011719 14.3125 21.371094 14.679688 21.511719 L 15.347656 21.777344 C 15.492188 21.832031 15.582031 21.96875 15.582031 22.117188 C 15.582031 22.375 15.378906 22.582031 15.132812 22.582031 Z M 15.132812 22.582031 " fill-opacity="1" fill-rule="nonzero"/><path fill="#000000" d="M 13.625 28.636719 C 13.625 26.796875 12.144531 25.304688 10.316406 25.304688 C 8.488281 25.304688 7.003906 26.796875 7.003906 28.636719 C 7.003906 30.476562 8.488281 31.964844 10.316406 31.964844 C 12.144531 31.964844 13.625 30.476562 13.625 28.636719 Z M 7.605469 28.636719 C 7.605469 27.128906 8.816406 25.910156 10.316406 25.910156 C 11.8125 25.910156 13.023438 27.128906 13.023438 28.636719 C 13.023438 30.140625 11.8125 31.359375 10.316406 31.359375 C 8.816406 31.359375 7.605469 30.140625 7.605469 28.636719 Z M 7.605469 28.636719 " fill-opacity="1" fill-rule="nonzero"/><path fill="#000000" d="M 10.617188 30.753906 L 10.617188 30.40625 C 11.050781 30.277344 11.367188 29.871094 11.367188 29.394531 C 11.367188 28.992188 11.128906 28.636719 10.757812 28.492188 L 10.089844 28.226562 C 9.945312 28.175781 9.855469 28.039062 9.855469 27.886719 C 9.855469 27.636719 10.058594 27.433594 10.308594 27.433594 C 10.554688 27.433594 10.757812 27.636719 10.757812 27.886719 L 10.757812 27.933594 C 10.757812 28.097656 10.894531 28.234375 11.058594 28.234375 C 11.226562 28.234375 11.359375 28.097656 11.359375 27.933594 L 11.359375 27.878906 C 11.359375 27.402344 11.046875 26.992188 10.609375 26.863281 L 10.609375 26.515625 C 10.609375 26.351562 10.472656 26.214844 10.308594 26.214844 C 10.140625 26.214844 10.007812 26.351562 10.007812 26.515625 L 10.007812 26.863281 C 9.570312 26.992188 9.253906 27.402344 9.253906 27.878906 C 9.253906 28.28125 9.496094 28.636719 9.863281 28.78125 L 10.535156 29.042969 C 10.675781 29.097656 10.765625 29.234375 10.765625 29.386719 C 10.765625 29.636719 10.5625 29.839844 10.316406 29.839844 C 10.066406 29.839844 9.863281 29.636719 9.863281 29.386719 L 9.863281 29.234375 C 9.863281 29.066406 9.726562 28.929688 9.5625 28.929688 C 9.398438 28.929688 9.261719 29.066406 9.261719 29.234375 L 9.261719 29.386719 C 9.261719 29.863281 9.578125 30.269531 10.015625 30.398438 L 10.015625 30.746094 C 10.015625 30.914062 10.148438 31.050781 10.316406 31.050781 C 10.480469 31.050781 10.617188 30.921875 10.617188 30.753906 Z M 10.617188 30.753906 " fill-opacity="1" fill-rule="nonzero"/><g clip-path="url(#7e868806e6)"><path fill="#000000" d="M 6.019531 10.160156 L 12.421875 11.9375 L 12.421875 16.296875 C 12.421875 16.464844 12.558594 16.601562 12.722656 16.601562 C 12.890625 16.601562 13.023438 16.464844 13.023438 16.296875 L 13.023438 12.097656 L 23.476562 14.996094 C 23.5 15.003906 23.527344 15.003906 23.558594 15.003906 C 23.589844 15.003906 23.613281 15.003906 23.640625 14.996094 L 31.6875 12.769531 L 31.6875 16.859375 C 31 17.003906 30.480469 17.609375 30.480469 18.339844 L 30.480469 24.398438 C 30.480469 24.5625 30.617188 24.699219 30.785156 24.699219 L 33.191406 24.699219 C 33.355469 24.699219 33.492188 24.5625 33.492188 24.398438 L 33.492188 18.339844 C 33.492188 17.609375 32.972656 17.003906 32.289062 16.859375 L 32.289062 12.597656 L 34.09375 12.097656 L 34.09375 20.839844 C 34.09375 21.007812 34.230469 21.140625 34.394531 21.140625 C 34.5625 21.140625 34.695312 21.007812 34.695312 20.839844 L 34.695312 11.929688 L 41.101562 10.152344 C 41.226562 10.113281 41.316406 9.992188 41.316406 9.855469 C 41.316406 9.71875 41.226562 9.597656 41.101562 9.5625 L 23.640625 4.71875 C 23.589844 4.703125 23.535156 4.703125 23.484375 4.71875 L 6.027344 9.5625 C 5.890625 9.605469 5.800781 9.726562 5.800781 9.863281 C 5.800781 10 5.890625 10.121094 6.019531 10.160156 Z M 32.890625 18.339844 L 32.890625 24.09375 L 32.289062 24.09375 L 32.289062 19.554688 C 32.289062 19.386719 32.152344 19.25 31.988281 19.25 C 31.820312 19.25 31.6875 19.386719 31.6875 19.554688 L 31.6875 24.09375 L 31.085938 24.09375 L 31.085938 18.339844 C 31.085938 17.84375 31.492188 17.433594 31.988281 17.433594 C 32.484375 17.433594 32.890625 17.84375 32.890625 18.339844 Z M 23.558594 5.332031 L 39.886719 9.863281 L 32.128906 12.019531 C 32.113281 12.015625 32.09375 12.007812 32.078125 12 L 23.648438 9.578125 C 23.492188 9.53125 23.324219 9.621094 23.28125 9.78125 C 23.234375 9.941406 23.324219 10.105469 23.484375 10.152344 L 31.03125 12.316406 L 23.558594 14.398438 L 7.230469 9.863281 Z M 23.558594 5.332031 " fill-opacity="1" fill-rule="nonzero"/></g><g clip-path="url(#1411cdca33)"><path fill="#000000" d="M 41.316406 32.625 L 41.316406 21.976562 C 41.316406 21.808594 41.183594 21.671875 41.015625 21.671875 L 34.394531 21.671875 C 34.230469 21.671875 34.09375 21.808594 34.09375 21.976562 L 34.09375 25.304688 L 27.472656 25.304688 L 27.472656 22.277344 L 29.578125 22.277344 C 29.746094 22.277344 29.878906 22.140625 29.878906 21.976562 C 29.878906 21.808594 29.746094 21.671875 29.578125 21.671875 L 19.636719 21.671875 C 19.644531 21.574219 19.644531 21.46875 19.644531 21.371094 C 19.644531 18.863281 17.621094 16.828125 15.132812 16.828125 C 12.640625 16.828125 10.617188 18.863281 10.617188 21.371094 C 10.617188 22.488281 11.023438 23.519531 11.699219 24.3125 C 11.261719 24.171875 10.796875 24.09375 10.316406 24.09375 C 7.824219 24.09375 5.800781 26.128906 5.800781 28.636719 C 5.800781 30.316406 6.710938 31.785156 8.066406 32.570312 L 6.101562 32.570312 C 5.605469 32.570312 5.199219 32.980469 5.199219 33.480469 L 5.199219 38.324219 C 5.199219 38.824219 5.605469 39.234375 6.101562 39.234375 L 41.015625 39.234375 C 41.515625 39.234375 41.921875 38.824219 41.921875 38.324219 L 41.921875 33.480469 C 41.921875 33.085938 41.671875 32.753906 41.316406 32.625 Z M 17.238281 25.910156 C 17.570312 25.910156 17.839844 26.183594 17.839844 26.515625 C 17.839844 26.675781 17.78125 26.835938 17.667969 26.949219 C 17.554688 27.0625 17.402344 27.121094 17.238281 27.121094 L 14.574219 27.121094 C 14.417969 26.683594 14.199219 26.273438 13.925781 25.910156 Z M 17.839844 28.332031 C 17.839844 28.492188 17.78125 28.652344 17.667969 28.765625 C 17.554688 28.878906 17.402344 28.9375 17.238281 28.9375 L 14.824219 28.9375 C 14.832031 28.839844 14.832031 28.734375 14.832031 28.636719 C 14.832031 28.324219 14.800781 28.023438 14.738281 27.726562 L 17.238281 27.726562 C 17.570312 27.726562 17.839844 28 17.839844 28.332031 Z M 14.738281 29.542969 L 17.238281 29.542969 C 17.570312 29.542969 17.839844 29.816406 17.839844 30.148438 C 17.839844 30.308594 17.78125 30.46875 17.667969 30.582031 C 17.554688 30.695312 17.402344 30.753906 17.238281 30.753906 L 14.304688 30.753906 C 14.507812 30.375 14.65625 29.96875 14.738281 29.542969 Z M 13.925781 31.359375 L 17.238281 31.359375 C 17.570312 31.359375 17.839844 31.632812 17.839844 31.964844 C 17.839844 32.125 17.78125 32.285156 17.667969 32.398438 C 17.554688 32.511719 17.402344 32.570312 17.238281 32.570312 L 12.574219 32.570312 C 13.09375 32.269531 13.550781 31.859375 13.925781 31.359375 Z M 18.035156 31.058594 C 18.058594 31.042969 18.074219 31.027344 18.097656 31.003906 C 18.320312 30.777344 18.449219 30.476562 18.449219 30.148438 C 18.449219 29.785156 18.292969 29.460938 18.042969 29.242188 C 18.066406 29.226562 18.082031 29.210938 18.105469 29.1875 C 18.328125 28.960938 18.457031 28.660156 18.457031 28.332031 C 18.457031 27.96875 18.300781 27.644531 18.050781 27.425781 C 18.074219 27.410156 18.089844 27.394531 18.109375 27.371094 C 18.335938 27.144531 18.464844 26.84375 18.464844 26.515625 C 18.464844 25.894531 17.992188 25.382812 17.386719 25.3125 C 18.089844 24.910156 18.667969 24.328125 19.066406 23.632812 L 19.066406 32.570312 L 18.308594 32.570312 C 18.410156 32.390625 18.464844 32.1875 18.464844 31.964844 C 18.441406 31.601562 18.285156 31.277344 18.035156 31.058594 Z M 40.714844 24.09375 L 34.695312 24.09375 L 34.695312 23.488281 L 40.714844 23.488281 Z M 40.714844 24.699219 L 40.714844 25.304688 L 34.695312 25.304688 L 34.695312 24.699219 Z M 40.714844 25.910156 L 40.714844 26.515625 L 34.695312 26.515625 L 34.695312 25.910156 Z M 40.714844 31.359375 L 34.695312 31.359375 L 34.695312 30.753906 L 40.714844 30.753906 Z M 33.492188 32.570312 L 33.492188 29.542969 L 34.09375 29.542969 L 34.09375 32.570312 Z M 34.695312 27.121094 L 40.714844 27.121094 L 40.714844 27.726562 L 34.695312 27.726562 Z M 40.714844 30.148438 L 34.695312 30.148438 L 34.695312 29.542969 L 40.714844 29.542969 Z M 34.695312 28.9375 L 34.695312 28.332031 L 40.714844 28.332031 L 40.714844 28.9375 Z M 34.09375 28.9375 L 33.492188 28.9375 L 33.492188 25.910156 L 34.09375 25.910156 Z M 32.890625 28.9375 L 27.472656 28.9375 L 27.472656 25.910156 L 32.890625 25.910156 Z M 26.871094 28.9375 L 26.269531 28.9375 L 26.269531 25.910156 L 26.871094 25.910156 Z M 25.667969 27.726562 L 19.644531 27.726562 L 19.644531 27.121094 L 25.667969 27.121094 Z M 19.644531 28.332031 L 25.667969 28.332031 L 25.667969 28.9375 L 19.644531 28.9375 Z M 25.667969 26.515625 L 19.644531 26.515625 L 19.644531 25.910156 L 25.667969 25.910156 Z M 19.644531 30.753906 L 25.667969 30.753906 L 25.667969 31.359375 L 19.644531 31.359375 Z M 25.667969 30.148438 L 19.644531 30.148438 L 19.644531 29.542969 L 25.667969 29.542969 Z M 19.644531 25.304688 L 19.644531 24.699219 L 25.667969 24.699219 L 25.667969 25.304688 Z M 25.667969 24.09375 L 19.644531 24.09375 L 19.644531 23.488281 L 25.667969 23.488281 Z M 19.644531 31.964844 L 25.667969 31.964844 L 25.667969 32.570312 L 19.644531 32.570312 Z M 26.269531 29.542969 L 26.871094 29.542969 L 26.871094 32.570312 L 26.269531 32.570312 Z M 27.472656 29.542969 L 32.890625 29.542969 L 32.890625 32.570312 L 27.472656 32.570312 Z M 34.695312 33.175781 L 34.695312 38.628906 L 32.890625 38.628906 L 32.890625 33.175781 Z M 34.695312 32.570312 L 34.695312 31.964844 L 40.714844 31.964844 L 40.714844 32.570312 Z M 40.714844 22.277344 L 40.714844 22.882812 L 34.695312 22.882812 L 34.695312 22.277344 Z M 26.871094 25.304688 L 26.269531 25.304688 L 26.269531 22.277344 L 26.871094 22.277344 Z M 25.667969 22.277344 L 25.667969 22.882812 L 19.644531 22.882812 L 19.644531 22.277344 Z M 15.132812 17.433594 C 17.289062 17.433594 19.042969 19.195312 19.042969 21.371094 C 19.042969 23.542969 17.289062 25.304688 15.132812 25.304688 C 12.972656 25.304688 11.21875 23.542969 11.21875 21.371094 C 11.21875 19.195312 12.972656 17.433594 15.132812 17.433594 Z M 6.402344 28.636719 C 6.402344 26.464844 8.15625 24.699219 10.316406 24.699219 C 12.476562 24.699219 14.226562 26.464844 14.226562 28.636719 C 14.226562 28.824219 14.214844 29.015625 14.191406 29.195312 C 14.109375 29.800781 13.875 30.382812 13.527344 30.882812 C 12.828125 31.890625 11.730469 32.503906 10.511719 32.5625 C 10.449219 32.5625 10.382812 32.570312 10.324219 32.570312 C 8.15625 32.570312 6.402344 30.808594 6.402344 28.636719 Z M 5.800781 38.324219 L 5.800781 33.480469 C 5.800781 33.3125 5.933594 33.175781 6.101562 33.175781 L 32.289062 33.175781 L 32.289062 38.628906 L 6.101562 38.628906 C 5.933594 38.628906 5.800781 38.492188 5.800781 38.324219 Z M 41.316406 38.324219 C 41.316406 38.492188 41.183594 38.628906 41.015625 38.628906 L 35.296875 38.628906 L 35.296875 33.175781 L 41.015625 33.175781 C 41.183594 33.175781 41.316406 33.3125 41.316406 33.480469 Z M 41.316406 38.324219 " fill-opacity="1" fill-rule="nonzero"/></g><path fill="#000000" d="M 29.578125 33.78125 L 6.703125 33.78125 C 6.539062 33.78125 6.402344 33.917969 6.402344 34.085938 L 6.402344 37.71875 C 6.402344 37.886719 6.539062 38.023438 6.703125 38.023438 L 29.578125 38.023438 C 29.746094 38.023438 29.878906 37.886719 29.878906 37.71875 L 29.878906 34.085938 C 29.878906 33.917969 29.746094 33.78125 29.578125 33.78125 Z M 29.277344 37.417969 L 7.003906 37.417969 L 7.003906 34.386719 L 29.277344 34.386719 Z M 29.277344 37.417969 " fill-opacity="1" fill-rule="nonzero"/></svg>