<svg xmlns="http://www.w3.org/2000/svg" xmlns:xlink="http://www.w3.org/1999/xlink" width="64" zoomAndPan="magnify" viewBox="0 0 48 48" height="64" preserveAspectRatio="xMidYMid meet" version="1.0"><defs><clipPath id="69fc9e63ec"><path d="M 10 6 L 37 6 L 37 40.703125 L 10 40.703125 Z M 10 6 " clip-rule="nonzero"/></clipPath></defs><g clip-path="url(#69fc9e63ec)"><path fill="#000000" d="M 29.183594 30.625 C 29.316406 30.652344 29.453125 30.667969 29.585938 30.667969 C 30.398438 30.667969 31.136719 30.125 31.371094 29.300781 L 32.847656 24.078125 C 33.023438 23.453125 33.109375 22.804688 33.109375 22.160156 L 33.109375 21.09375 L 33.535156 21.09375 L 33.109375 20.929688 L 33.109375 20.105469 L 33.101562 19.65625 L 33.148438 19.644531 L 33.742188 19.839844 L 33.632812 19.632812 C 33.507812 19.394531 33.316406 19.207031 33.09375 19.082031 L 33.066406 17.800781 C 33.0625 17.59375 33.042969 17.40625 33.011719 17.222656 C 36.320312 13.554688 37.71875 9.925781 36.292969 7.804688 C 34.214844 4.71875 27.039062 6.179688 19.957031 11.128906 C 16.613281 13.464844 13.839844 16.21875 12.148438 18.878906 C 10.414062 21.613281 10.015625 23.949219 11.03125 25.457031 C 11.742188 26.515625 13.078125 27.058594 14.894531 27.058594 C 15.667969 27.058594 16.523438 26.960938 17.457031 26.761719 C 18.671875 26.503906 19.960938 26.085938 21.285156 25.53125 L 21.542969 26.238281 C 21.238281 29.542969 20.597656 31.851562 20.03125 33.890625 C 19.425781 36.066406 18.90625 37.941406 18.90625 40.449219 L 18.90625 40.734375 L 34.929688 40.734375 L 34.421875 40.246094 C 31.714844 37.636719 29.910156 34.316406 29.183594 30.625 Z M 17.34375 26.210938 C 14.449219 26.828125 12.371094 26.445312 11.488281 25.136719 C 10.609375 23.832031 11.007812 21.71875 12.617188 19.1875 C 14.269531 16.585938 16.988281 13.890625 20.269531 11.597656 C 24.726562 8.480469 29.304688 6.75 32.421875 6.75 C 34 6.75 35.207031 7.191406 35.835938 8.125 C 37.703125 10.902344 33.765625 16.976562 27.054688 21.667969 C 23.769531 23.960938 20.324219 25.574219 17.34375 26.210938 Z M 27.367188 22.136719 C 29.351562 20.75 31.082031 19.261719 32.507812 17.765625 C 32.507812 17.78125 32.511719 17.796875 32.511719 17.816406 L 32.53125 18.921875 C 32.4375 18.914062 32.34375 18.914062 32.25 18.929688 C 31.941406 18.976562 31.65625 19.132812 31.449219 19.367188 C 31.167969 19.6875 30.804688 20.117188 30.820312 20.179688 L 32.546875 19.78125 L 32.554688 20.113281 L 32.554688 20.714844 L 32.144531 20.554688 L 30.851562 20.851562 L 30.558594 21.445312 L 30.886719 21.378906 C 30.847656 21.65625 30.984375 21.925781 31.238281 22.03125 C 31.535156 22.148438 31.878906 21.984375 32.003906 21.664062 C 32.070312 21.488281 32.058594 21.300781 31.984375 21.148438 L 32.238281 21.097656 L 32.554688 21.097656 L 32.554688 22.164062 C 32.554688 22.753906 32.472656 23.347656 32.3125 23.921875 L 31.371094 27.242188 L 30.769531 26.292969 L 30.339844 26.46875 L 29.84375 26.292969 L 28.1875 27.390625 L 27.800781 27.390625 L 29.457031 28.203125 L 30.640625 28.203125 L 31.269531 27.609375 L 30.835938 29.144531 C 30.644531 29.820312 29.96875 30.226562 29.292969 30.070312 L 24.339844 28.914062 C 23.5 28.722656 22.820312 28.117188 22.519531 27.292969 L 21.796875 25.3125 C 23.636719 24.496094 25.527344 23.421875 27.367188 22.136719 Z M 19.464844 40.167969 C 19.5 37.875 19.996094 36.09375 20.566406 34.042969 C 21.070312 32.222656 21.636719 30.179688 21.976562 27.417969 L 22 27.492188 C 22.367188 28.492188 23.195312 29.230469 24.214844 29.464844 L 28.589844 30.484375 C 29.265625 34.167969 30.972656 37.496094 33.550781 40.167969 Z M 29.695312 17.9375 L 29.335938 17.503906 C 32.964844 14.371094 34.835938 11.136719 33.890625 9.632812 L 34.359375 9.328125 C 35.496094 11.132812 33.664062 14.511719 29.695312 17.9375 Z M 18.046875 19.609375 C 16.882812 19.609375 15.9375 20.574219 15.9375 21.761719 C 15.9375 22.945312 16.882812 23.910156 18.046875 23.910156 C 19.210938 23.910156 20.15625 22.945312 20.15625 21.761719 C 20.15625 20.574219 19.210938 19.609375 18.046875 19.609375 Z M 18.046875 23.34375 C 17.1875 23.34375 16.492188 22.632812 16.492188 21.761719 C 16.492188 20.886719 17.1875 20.175781 18.046875 20.175781 C 18.902344 20.175781 19.601562 20.886719 19.601562 21.761719 C 19.601562 22.632812 18.902344 23.34375 18.046875 23.34375 Z M 18.828125 21.761719 C 18.828125 22.199219 18.476562 22.558594 18.046875 22.558594 C 17.613281 22.558594 17.265625 22.199219 17.265625 21.761719 C 17.265625 21.320312 17.613281 20.964844 18.046875 20.964844 C 18.480469 20.964844 18.828125 21.320312 18.828125 21.761719 Z M 21.941406 18.992188 C 21.007812 18.992188 20.246094 19.765625 20.246094 20.714844 C 20.246094 21.664062 21.007812 22.4375 21.941406 22.4375 C 22.871094 22.4375 23.632812 21.664062 23.632812 20.714844 C 23.632812 19.765625 22.871094 18.992188 21.941406 18.992188 Z M 21.941406 21.871094 C 21.3125 21.871094 20.804688 21.351562 20.804688 20.714844 C 20.804688 20.078125 21.3125 19.558594 21.941406 19.558594 C 22.566406 19.558594 23.074219 20.078125 23.074219 20.714844 C 23.074219 21.351562 22.566406 21.871094 21.941406 21.871094 Z M 19.253906 19.597656 C 19.84375 19.597656 20.324219 19.109375 20.324219 18.507812 C 20.324219 17.910156 19.84375 17.421875 19.253906 17.421875 C 18.667969 17.421875 18.1875 17.910156 18.1875 18.507812 C 18.1875 19.109375 18.667969 19.597656 19.253906 19.597656 Z M 19.253906 17.988281 C 19.539062 17.988281 19.765625 18.222656 19.765625 18.507812 C 19.765625 18.796875 19.539062 19.03125 19.253906 19.03125 C 18.972656 19.03125 18.742188 18.796875 18.742188 18.507812 C 18.742188 18.222656 18.972656 17.988281 19.253906 17.988281 Z M 22.542969 20.714844 C 22.542969 21.054688 22.273438 21.328125 21.9375 21.328125 C 21.605469 21.328125 21.335938 21.054688 21.335938 20.714844 C 21.335938 20.375 21.605469 20.101562 21.9375 20.101562 C 22.273438 20.101562 22.542969 20.375 22.542969 20.714844 Z M 22.542969 20.714844 " fill-opacity="1" fill-rule="nonzero"/></g></svg>