<svg xmlns="http://www.w3.org/2000/svg" xmlns:xlink="http://www.w3.org/1999/xlink" width="64" zoomAndPan="magnify" viewBox="0 0 48 48" height="64" preserveAspectRatio="xMidYMid meet" version="1.0"><defs><clipPath id="0b6ab6f305"><path d="M 8.847656 7.324219 L 38.96875 7.324219 L 38.96875 39.652344 L 8.847656 39.652344 Z M 8.847656 7.324219 " clip-rule="nonzero"/></clipPath></defs><g clip-path="url(#0b6ab6f305)"><path fill="#000000" d="M 32.023438 14.277344 L 33.777344 15.777344 L 32.902344 17.914062 C 32.859375 18.015625 32.886719 18.132812 32.972656 18.207031 C 33.058594 18.277344 33.179688 18.289062 33.273438 18.230469 L 35.230469 17.019531 L 36.984375 18.515625 C 37.03125 18.554688 37.089844 18.574219 37.148438 18.574219 C 37.195312 18.574219 37.242188 18.5625 37.28125 18.539062 C 37.375 18.480469 37.421875 18.367188 37.398438 18.257812 L 36.855469 16.011719 L 38.816406 14.800781 C 38.910156 14.742188 38.953125 14.628906 38.929688 14.523438 C 38.902344 14.414062 38.8125 14.335938 38.699219 14.328125 L 36.40625 14.152344 L 35.863281 11.90625 C 35.839844 11.796875 35.746094 11.71875 35.636719 11.710938 C 35.527344 11.699219 35.421875 11.765625 35.378906 11.867188 L 34.503906 14.003906 L 32.210938 13.828125 C 32.101562 13.820312 31.996094 13.882812 31.953125 13.984375 C 31.914062 14.089844 31.941406 14.207031 32.023438 14.277344 Z M 34.648438 14.53125 C 34.761719 14.539062 34.863281 14.472656 34.90625 14.371094 L 35.554688 12.792969 L 35.953125 14.453125 C 35.980469 14.558594 36.070312 14.640625 36.183594 14.648438 L 37.878906 14.777344 L 36.429688 15.675781 C 36.335938 15.730469 36.289062 15.84375 36.316406 15.953125 L 36.714844 17.613281 L 35.421875 16.507812 C 35.371094 16.464844 35.3125 16.445312 35.253906 16.445312 C 35.207031 16.445312 35.164062 16.457031 35.121094 16.484375 L 33.671875 17.378906 L 34.320312 15.800781 C 34.363281 15.695312 34.335938 15.578125 34.25 15.507812 L 32.953125 14.398438 Z M 24.574219 11.324219 L 26.324219 12.820312 L 25.449219 14.957031 C 25.40625 15.0625 25.433594 15.179688 25.519531 15.25 C 25.605469 15.324219 25.726562 15.332031 25.820312 15.273438 L 27.777344 14.0625 L 29.53125 15.558594 C 29.578125 15.601562 29.636719 15.621094 29.695312 15.621094 C 29.742188 15.621094 29.789062 15.609375 29.828125 15.582031 C 29.925781 15.523438 29.96875 15.410156 29.945312 15.304688 L 29.402344 13.058594 L 31.363281 11.847656 C 31.457031 11.789062 31.5 11.675781 31.476562 11.566406 C 31.449219 11.460938 31.359375 11.378906 31.246094 11.371094 L 28.953125 11.195312 L 28.410156 8.949219 C 28.386719 8.839844 28.292969 8.761719 28.183594 8.753906 C 28.074219 8.746094 27.96875 8.808594 27.925781 8.910156 L 27.050781 11.046875 L 24.757812 10.871094 C 24.648438 10.863281 24.542969 10.925781 24.5 11.03125 C 24.460938 11.132812 24.488281 11.25 24.574219 11.324219 Z M 27.195312 11.574219 C 27.308594 11.582031 27.410156 11.519531 27.453125 11.417969 L 28.101562 9.835938 L 28.5 11.496094 C 28.527344 11.605469 28.617188 11.683594 28.730469 11.691406 L 30.425781 11.824219 L 28.976562 12.71875 C 28.882812 12.777344 28.835938 12.890625 28.863281 12.996094 L 29.261719 14.65625 L 27.96875 13.550781 C 27.921875 13.511719 27.859375 13.488281 27.800781 13.488281 C 27.753906 13.488281 27.710938 13.503906 27.667969 13.527344 L 26.21875 14.421875 L 26.867188 12.84375 C 26.910156 12.742188 26.882812 12.621094 26.796875 12.550781 L 25.5 11.445312 Z M 37.960938 31.328125 L 37.960938 29.316406 C 37.960938 29.175781 37.847656 29.058594 37.707031 29.058594 L 35.703125 29.058594 C 35.5625 29.058594 35.445312 29.175781 35.445312 29.316406 L 35.445312 31.328125 C 35.445312 31.472656 35.5625 31.585938 35.703125 31.585938 L 37.707031 31.585938 C 37.847656 31.585938 37.960938 31.472656 37.960938 31.328125 Z M 37.453125 31.074219 L 35.957031 31.074219 L 35.957031 29.574219 L 37.453125 29.574219 Z M 34.21875 32.75 C 34.132812 32.695312 34.019531 32.699219 33.9375 32.757812 C 32.515625 33.761719 31.457031 35.105469 30.785156 36.753906 C 30.734375 36.871094 30.777344 37.003906 30.882812 37.070312 L 32.773438 38.253906 C 32.816406 38.277344 32.863281 38.292969 32.910156 38.292969 C 32.9375 38.292969 32.960938 38.285156 32.988281 38.277344 C 33.058594 38.253906 33.117188 38.203125 33.144531 38.132812 C 33.78125 36.578125 34.78125 35.308594 36.121094 34.359375 C 36.191406 34.308594 36.230469 34.230469 36.230469 34.144531 C 36.226562 34.058594 36.183594 33.976562 36.109375 33.933594 Z M 32.792969 37.660156 L 31.339844 36.75 C 31.953125 35.335938 32.878906 34.171875 34.09375 33.273438 L 35.519531 34.167969 C 34.332031 35.085938 33.414062 36.257812 32.792969 37.660156 Z M 9.402344 27.726562 C 9.433594 27.839844 9.535156 27.914062 9.648438 27.914062 C 9.671875 27.914062 9.695312 27.910156 9.71875 27.902344 L 11.511719 27.394531 C 11.648438 27.355469 11.726562 27.214844 11.6875 27.078125 L 11.179688 25.277344 C 11.144531 25.140625 11 25.058594 10.867188 25.097656 L 9.074219 25.605469 C 8.9375 25.644531 8.859375 25.789062 8.894531 25.921875 Z M 10.757812 25.660156 L 11.125 26.96875 L 9.824219 27.339844 L 9.457031 26.03125 Z M 11.867188 14.621094 C 11.605469 15.027344 11.207031 15.800781 11.25 16.699219 C 11.296875 17.675781 11.980469 18.53125 12.351562 18.925781 C 11.25 19.707031 10.761719 20.464844 10.933594 21.136719 C 10.9375 21.136719 10.9375 21.136719 10.9375 21.136719 C 11.117188 21.835938 11.5625 22.378906 12.03125 22.957031 C 12.476562 23.503906 12.933594 24.070312 13.246094 24.832031 C 13.535156 25.539062 13.722656 26.652344 13.90625 27.734375 C 13.984375 28.175781 14.058594 28.613281 14.136719 29.023438 C 12.570312 29.804688 11.304688 30.648438 10.46875 31.472656 C 9.523438 32.398438 9.132812 33.300781 9.332031 34.078125 C 9.636719 35.25 11.226562 35.980469 13.808594 36.136719 C 14.164062 36.15625 14.535156 36.167969 14.917969 36.167969 C 17.207031 36.167969 19.917969 35.785156 22.691406 35.058594 C 24.101562 34.691406 25.457031 34.25 26.726562 33.753906 L 25.4375 38.191406 C 25.351562 38.484375 25.386719 38.792969 25.53125 39.058594 C 25.675781 39.328125 25.917969 39.519531 26.210938 39.605469 C 26.316406 39.636719 26.421875 39.652344 26.527344 39.652344 C 26.71875 39.652344 26.902344 39.605469 27.074219 39.511719 C 27.339844 39.367188 27.53125 39.125 27.617188 38.832031 L 29.445312 32.527344 C 32.636719 30.863281 34.25 29.09375 33.878906 27.660156 C 33.664062 26.828125 32.800781 26.214844 31.378906 25.878906 L 32.984375 20.339844 C 33.070312 20.046875 33.035156 19.738281 32.890625 19.472656 C 32.746094 19.203125 32.503906 19.011719 32.214844 18.925781 C 31.921875 18.839844 31.617188 18.875 31.347656 19.019531 C 31.082031 19.167969 30.890625 19.410156 30.804688 19.699219 L 29.097656 25.589844 C 28.511719 25.5625 27.886719 25.566406 27.230469 25.597656 C 27.101562 25.203125 26.953125 24.785156 26.804688 24.359375 C 26.4375 23.328125 26.0625 22.261719 25.972656 21.503906 C 25.875 20.683594 26 19.964844 26.125 19.273438 C 26.253906 18.535156 26.378906 17.84375 26.195312 17.144531 C 26 16.390625 25.023438 15.949219 23.371094 15.867188 C 22.820312 15.839844 22.214844 15.855469 21.570312 15.90625 C 22.054688 15.546875 22.433594 15.101562 22.703125 14.578125 C 22.746094 14.5 22.742188 14.402344 22.691406 14.324219 C 22.398438 13.859375 21.925781 13.507812 21.199219 13.226562 C 21.671875 12.925781 22.058594 12.496094 22.347656 11.945312 C 22.386719 11.867188 22.386719 11.773438 22.339844 11.695312 C 22.0625 11.214844 21.640625 10.839844 21.09375 10.574219 C 21.96875 9.75 22.425781 8.75 22.449219 7.59375 C 22.449219 7.523438 22.421875 7.453125 22.371094 7.402344 C 22.320312 7.355469 22.25 7.328125 22.175781 7.332031 C 22.035156 7.34375 18.722656 7.574219 17.257812 9.125 C 16.015625 10.441406 16.011719 12.84375 16.050781 13.644531 C 15.632812 13.652344 14.96875 13.585938 14.667969 13.238281 C 14.476562 13.011719 14.394531 12.59375 14.316406 12.191406 C 14.199219 11.59375 14.070312 10.914062 13.511719 10.644531 C 12.84375 10.324219 12.074219 10.671875 11.511719 10.925781 C 11.316406 11.015625 11.132812 11.097656 11 11.132812 C 10.496094 11.257812 9.742188 11.210938 9.734375 11.210938 C 9.660156 11.207031 9.589844 11.234375 9.535156 11.289062 C 9.484375 11.34375 9.457031 11.414062 9.464844 11.488281 C 9.46875 11.550781 9.601562 13.003906 10.316406 13.71875 C 10.78125 14.191406 11.457031 14.476562 11.867188 14.621094 Z M 26.519531 25.09375 C 26.878906 26.132812 27.191406 27.128906 27.121094 27.664062 C 26.992188 28.652344 25.246094 30.070312 21.644531 31.015625 C 18.039062 31.957031 15.828125 31.570312 15.234375 30.773438 C 14.914062 30.339844 14.703125 29.320312 14.511719 28.234375 C 15.078125 28.398438 16.179688 28.652344 17.640625 28.652344 C 18.597656 28.652344 19.710938 28.542969 20.921875 28.226562 C 23.972656 27.429688 25.835938 25.792969 26.519531 25.09375 Z M 27.125 38.6875 C 27.078125 38.847656 26.972656 38.980469 26.828125 39.0625 C 26.679688 39.144531 26.511719 39.160156 26.351562 39.113281 C 26.191406 39.066406 26.058594 38.960938 25.980469 38.8125 C 25.898438 38.667969 25.878906 38.496094 25.925781 38.335938 L 30.300781 23.265625 L 31.5 23.617188 Z M 33.382812 27.789062 C 33.664062 28.875 32.246094 30.40625 29.648438 31.839844 L 31.234375 26.371094 C 32.148438 26.585938 33.179688 27 33.382812 27.789062 Z M 31.296875 19.84375 C 31.34375 19.683594 31.449219 19.550781 31.59375 19.46875 C 31.6875 19.417969 31.789062 19.390625 31.894531 19.390625 C 31.953125 19.390625 32.011719 19.402344 32.070312 19.417969 C 32.230469 19.464844 32.363281 19.570312 32.441406 19.71875 C 32.523438 19.867188 32.542969 20.035156 32.496094 20.195312 L 31.644531 23.125 L 30.445312 22.773438 Z M 28.949219 26.09375 L 26.90625 33.128906 C 25.550781 33.679688 24.089844 34.164062 22.5625 34.5625 C 19.375 35.394531 16.277344 35.773438 13.839844 35.625 C 11.527344 35.484375 10.066406 34.875 9.828125 33.949219 C 9.519531 32.757812 11.207031 31.082031 14.246094 29.539062 C 14.398438 30.199219 14.578125 30.746094 14.824219 31.078125 C 15.316406 31.742188 16.402344 32.082031 17.878906 32.082031 C 18.984375 32.082031 20.308594 31.894531 21.773438 31.511719 C 25.195312 30.617188 27.441406 29.167969 27.628906 27.730469 C 27.679688 27.316406 27.570312 26.75 27.382812 26.105469 C 27.929688 26.082031 28.457031 26.078125 28.949219 26.09375 Z M 26.320312 24.53125 C 26.324219 24.539062 26.328125 24.542969 26.328125 24.550781 C 26.109375 24.789062 25.5 25.402344 24.519531 26.058594 C 24.136719 24.40625 24.085938 22.875 24.375 21.382812 C 24.398438 21.246094 24.308594 21.109375 24.171875 21.082031 C 24.03125 21.054688 23.898438 21.148438 23.871094 21.285156 C 23.5625 22.902344 23.625 24.558594 24.066406 26.347656 C 23.203125 26.871094 22.113281 27.386719 20.792969 27.730469 C 17.558594 28.574219 15.011719 27.863281 14.414062 27.667969 C 14.414062 27.660156 14.414062 27.652344 14.410156 27.644531 C 14.222656 26.539062 14.027344 25.394531 13.71875 24.636719 C 13.378906 23.804688 12.871094 23.183594 12.425781 22.632812 C 12.28125 22.453125 12.140625 22.28125 12.011719 22.109375 C 12.464844 22.273438 13.050781 22.375 13.761719 22.414062 C 13.945312 22.421875 14.136719 22.425781 14.335938 22.425781 C 15.765625 22.425781 17.480469 22.183594 19.234375 21.722656 C 21.230469 21.199219 23.046875 20.460938 24.351562 19.644531 C 24.953125 19.261719 25.414062 18.886719 25.730469 18.523438 C 25.699219 18.734375 25.660156 18.953125 25.621094 19.183594 C 25.5 19.878906 25.359375 20.667969 25.464844 21.566406 C 25.5625 22.378906 25.949219 23.472656 26.320312 24.53125 Z M 22.792969 16.367188 C 22.984375 16.367188 23.167969 16.371094 23.347656 16.378906 C 24.695312 16.449219 25.574219 16.78125 25.703125 17.273438 C 25.828125 17.765625 25.222656 18.488281 24.078125 19.207031 C 22.820312 20 21.054688 20.71875 19.105469 21.226562 C 14.902344 22.328125 11.6875 21.992188 11.429688 21.007812 C 11.300781 20.515625 11.910156 19.792969 13.054688 19.070312 C 14.3125 18.28125 16.078125 17.5625 18.023438 17.054688 C 19.738281 16.605469 21.40625 16.367188 22.792969 16.367188 Z M 11.121094 11.628906 C 11.300781 11.585938 11.496094 11.496094 11.722656 11.394531 C 12.21875 11.167969 12.835938 10.886719 13.289062 11.109375 C 13.617188 11.265625 13.710938 11.761719 13.816406 12.289062 C 13.90625 12.757812 14 13.242188 14.28125 13.570312 C 14.902344 14.300781 16.292969 14.144531 16.351562 14.136719 C 16.488281 14.121094 16.585938 13.996094 16.574219 13.859375 C 16.570312 13.828125 16.3125 10.871094 17.628906 9.480469 C 18.722656 8.324219 21.097656 7.964844 21.921875 7.871094 C 21.828125 8.886719 21.34375 9.734375 20.453125 10.453125 C 20.382812 10.511719 20.347656 10.605469 20.363281 10.699219 C 20.378906 10.789062 20.441406 10.867188 20.53125 10.898438 C 21.113281 11.101562 21.539062 11.410156 21.824219 11.835938 C 21.488281 12.417969 21.035156 12.808594 20.441406 13.035156 C 20.339844 13.074219 20.273438 13.175781 20.277344 13.285156 C 20.28125 13.394531 20.355469 13.492188 20.460938 13.523438 C 21.328125 13.773438 21.863281 14.070312 22.175781 14.480469 C 21.765625 15.199219 21.117188 15.722656 20.203125 16.074219 C 19.457031 16.191406 18.679688 16.351562 17.894531 16.554688 C 15.902344 17.078125 14.085938 17.816406 12.785156 18.636719 C 12.484375 18.328125 11.800781 17.535156 11.761719 16.675781 C 11.707031 15.578125 12.46875 14.65625 12.476562 14.648438 C 12.535156 14.578125 12.550781 14.488281 12.523438 14.402344 C 12.5 14.320312 12.429688 14.253906 12.34375 14.234375 C 12.332031 14.230469 11.273438 13.957031 10.675781 13.359375 C 10.261719 12.941406 10.082031 12.15625 10.011719 11.734375 C 10.308594 11.734375 10.757812 11.722656 11.121094 11.628906 Z M 11.121094 11.628906 " fill-opacity="1" fill-rule="nonzero"/></g></svg>