<svg xmlns="http://www.w3.org/2000/svg" xmlns:xlink="http://www.w3.org/1999/xlink" width="64" zoomAndPan="magnify" viewBox="0 0 48 48" height="64" preserveAspectRatio="xMidYMid meet" version="1.0"><defs><clipPath id="27dbcd6ff1"><path d="M 19 15 L 40.023438 15 L 40.023438 42.871094 L 19 42.871094 Z M 19 15 " clip-rule="nonzero"/></clipPath><clipPath id="f601c9df89"><path d="M 7.699219 4 L 25 4 L 25 27 L 7.699219 27 Z M 7.699219 4 " clip-rule="nonzero"/></clipPath></defs><g clip-path="url(#27dbcd6ff1)"><path fill="#100f0d" d="M 38.730469 17.261719 L 38.730469 19.753906 L 27.09375 24.414062 L 27.09375 21.925781 Z M 36.144531 37.667969 C 34.71875 37.667969 33.558594 36.507812 33.558594 35.082031 C 33.558594 33.652344 34.71875 32.492188 36.144531 32.492188 C 37.570312 32.492188 38.730469 33.652344 38.730469 35.082031 C 38.730469 36.507812 37.570312 37.667969 36.144531 37.667969 Z M 23.214844 41.554688 C 21.789062 41.554688 20.628906 40.390625 20.628906 38.964844 C 20.628906 37.535156 21.789062 36.375 23.214844 36.375 C 24.640625 36.375 25.800781 37.535156 25.800781 38.964844 C 25.800781 40.390625 24.640625 41.554688 23.214844 41.554688 Z M 25.800781 21.484375 L 25.800781 36.074219 C 25.113281 35.457031 24.207031 35.082031 23.214844 35.082031 C 21.074219 35.082031 19.335938 36.824219 19.335938 38.964844 C 19.335938 41.105469 21.074219 42.847656 23.214844 42.847656 C 25.355469 42.847656 27.09375 41.105469 27.09375 38.964844 L 27.09375 25.808594 L 38.730469 21.148438 L 38.730469 32.1875 C 38.042969 31.570312 37.136719 31.195312 36.144531 31.195312 C 34.007812 31.195312 32.265625 32.9375 32.265625 35.082031 C 32.265625 37.222656 34.007812 38.964844 36.144531 38.964844 C 38.285156 38.964844 40.023438 37.222656 40.023438 35.082031 C 40.023438 34.859375 40.023438 16.308594 40.023438 16.308594 C 40.023438 16.09375 39.917969 15.890625 39.742188 15.769531 C 39.5625 15.652344 39.335938 15.625 39.136719 15.707031 L 26.207031 20.886719 C 25.960938 20.984375 25.800781 21.222656 25.800781 21.484375 " fill-opacity="1" fill-rule="nonzero"/></g><g clip-path="url(#f601c9df89)"><path fill="#100f0d" d="M 11.578125 25.371094 C 10.152344 25.371094 8.992188 24.207031 8.992188 22.78125 C 8.992188 21.351562 10.152344 20.191406 11.578125 20.191406 C 13.003906 20.191406 14.164062 21.351562 14.164062 22.78125 C 14.164062 24.207031 13.003906 25.371094 11.578125 25.371094 Z M 21.632812 11.882812 C 18.65625 9.898438 15.398438 4.382812 15.367188 4.328125 C 15.21875 4.074219 14.921875 3.953125 14.640625 4.03125 C 14.359375 4.105469 14.164062 4.363281 14.164062 4.65625 L 14.164062 19.890625 C 13.476562 19.273438 12.570312 18.898438 11.578125 18.898438 C 9.4375 18.898438 7.699219 20.640625 7.699219 22.78125 C 7.699219 24.921875 9.4375 26.664062 11.578125 26.664062 C 13.714844 26.664062 15.457031 24.921875 15.457031 22.78125 L 15.457031 6.875 C 16.730469 8.761719 18.839844 11.574219 20.917969 12.960938 C 22.292969 13.878906 22.90625 15.074219 22.738281 16.511719 C 22.613281 17.613281 22.070312 18.476562 22.03125 18.535156 C 22.03125 18.535156 22.03125 18.539062 22.03125 18.539062 C 21.960938 18.640625 21.921875 18.765625 21.921875 18.898438 C 21.921875 19.253906 22.210938 19.542969 22.566406 19.542969 C 22.792969 19.542969 22.992188 19.429688 23.105469 19.253906 C 23.136719 19.210938 23.839844 18.140625 24.019531 16.710938 C 24.1875 15.347656 23.914062 13.40625 21.632812 11.882812 " fill-opacity="1" fill-rule="nonzero"/></g><path fill="#100f0d" d="M 33.558594 6.597656 C 33.203125 6.597656 32.914062 6.886719 32.914062 7.246094 L 32.914062 8.539062 L 31.621094 8.539062 C 31.261719 8.539062 30.972656 8.828125 30.972656 9.1875 C 30.972656 9.542969 31.261719 9.832031 31.621094 9.832031 L 32.914062 9.832031 L 32.914062 11.128906 C 32.914062 11.484375 33.203125 11.777344 33.558594 11.777344 C 33.917969 11.777344 34.207031 11.484375 34.207031 11.128906 L 34.207031 9.832031 L 35.5 9.832031 C 35.855469 9.832031 36.144531 9.542969 36.144531 9.1875 C 36.144531 8.828125 35.855469 8.539062 35.5 8.539062 L 34.207031 8.539062 L 34.207031 7.246094 C 34.207031 6.886719 33.917969 6.597656 33.558594 6.597656 " fill-opacity="1" fill-rule="nonzero"/><path fill="#100f0d" d="M 12.222656 40.257812 C 12.582031 40.257812 12.871094 39.96875 12.871094 39.613281 L 12.871094 38.316406 L 14.164062 38.316406 C 14.519531 38.316406 14.808594 38.027344 14.808594 37.667969 C 14.808594 37.3125 14.519531 37.023438 14.164062 37.023438 L 12.871094 37.023438 L 12.871094 35.726562 C 12.871094 35.371094 12.582031 35.082031 12.222656 35.082031 C 11.867188 35.082031 11.578125 35.371094 11.578125 35.726562 L 11.578125 37.023438 L 10.285156 37.023438 C 9.925781 37.023438 9.636719 37.3125 9.636719 37.667969 C 9.636719 38.027344 9.925781 38.316406 10.285156 38.316406 L 11.578125 38.316406 L 11.578125 39.613281 C 11.578125 39.96875 11.867188 40.257812 12.222656 40.257812 " fill-opacity="1" fill-rule="nonzero"/></svg>