<svg xmlns="http://www.w3.org/2000/svg" xmlns:xlink="http://www.w3.org/1999/xlink" width="64" zoomAndPan="magnify" viewBox="0 0 48 48" height="64" preserveAspectRatio="xMidYMid meet" version="1.0"><defs><clipPath id="0bcb44ed97"><path d="M 6.171875 31 L 18 31 L 18 37.34375 L 6.171875 37.34375 Z M 6.171875 31 " clip-rule="nonzero"/></clipPath><clipPath id="03e2a5fdea"><path d="M 18 31 L 31 31 L 31 37.34375 L 18 37.34375 Z M 18 31 " clip-rule="nonzero"/></clipPath><clipPath id="2746504b18"><path d="M 30 31 L 42.171875 31 L 42.171875 37.34375 L 30 37.34375 Z M 30 31 " clip-rule="nonzero"/></clipPath><clipPath id="49fc3241fc"><path d="M 21 9.425781 L 28 9.425781 L 28 16 L 21 16 Z M 21 9.425781 " clip-rule="nonzero"/></clipPath></defs><g clip-path="url(#0bcb44ed97)"><path fill="#000000" d="M 17.339844 37.328125 C 17.0625 37.328125 16.824219 37.089844 16.824219 36.820312 L 16.824219 34.871094 C 16.824219 33.695312 16.003906 32.753906 14.972656 32.753906 L 9.046875 32.753906 C 8.019531 32.753906 7.199219 33.695312 7.199219 34.871094 L 7.199219 36.820312 C 7.199219 37.089844 6.960938 37.328125 6.683594 37.328125 C 6.410156 37.328125 6.171875 37.125 6.171875 36.820312 L 6.171875 34.871094 C 6.171875 33.15625 7.472656 31.742188 9.046875 31.742188 L 14.972656 31.742188 C 16.550781 31.742188 17.851562 33.15625 17.851562 34.871094 L 17.851562 36.820312 C 17.851562 37.125 17.613281 37.328125 17.339844 37.328125 Z M 17.339844 37.328125 " fill-opacity="1" fill-rule="nonzero"/></g><path fill="#000000" d="M 11.996094 31.304688 C 10.316406 31.304688 8.910156 29.960938 8.910156 28.277344 C 8.910156 26.597656 10.28125 25.25 11.996094 25.25 C 13.707031 25.25 15.078125 26.597656 15.078125 28.277344 C 15.078125 29.960938 13.707031 31.304688 11.996094 31.304688 Z M 11.996094 26.292969 C 10.863281 26.292969 9.9375 27.203125 9.9375 28.3125 C 9.9375 29.421875 10.863281 30.332031 11.996094 30.332031 C 13.125 30.332031 14.050781 29.421875 14.050781 28.3125 C 14.050781 27.167969 13.125 26.292969 11.996094 26.292969 Z M 11.996094 26.292969 " fill-opacity="1" fill-rule="nonzero"/><g clip-path="url(#03e2a5fdea)"><path fill="#000000" d="M 29.464844 37.328125 C 29.191406 37.328125 28.949219 37.089844 28.949219 36.820312 L 28.949219 34.871094 C 28.949219 33.695312 28.128906 32.753906 27.101562 32.753906 L 21.207031 32.753906 C 20.179688 32.753906 19.359375 33.695312 19.359375 34.871094 L 19.359375 36.820312 C 19.359375 37.089844 19.117188 37.328125 18.84375 37.328125 C 18.570312 37.328125 18.332031 37.089844 18.332031 36.820312 L 18.332031 34.871094 C 18.332031 33.15625 19.632812 31.742188 21.207031 31.742188 L 27.132812 31.742188 C 28.710938 31.742188 30.011719 33.15625 30.011719 34.871094 L 30.011719 36.820312 C 30.011719 37.125 29.773438 37.328125 29.464844 37.328125 C 29.496094 37.328125 29.464844 37.328125 29.464844 37.328125 Z M 29.464844 37.328125 " fill-opacity="1" fill-rule="nonzero"/></g><path fill="#000000" d="M 24.15625 31.304688 C 22.476562 31.304688 21.070312 29.960938 21.070312 28.277344 C 21.070312 26.597656 22.441406 25.25 24.15625 25.25 C 25.867188 25.25 27.238281 26.597656 27.238281 28.277344 C 27.238281 29.960938 25.867188 31.304688 24.15625 31.304688 Z M 24.15625 26.292969 C 23.023438 26.292969 22.097656 27.203125 22.097656 28.3125 C 22.097656 29.421875 23.023438 30.332031 24.15625 30.332031 C 25.285156 30.332031 26.210938 29.421875 26.210938 28.3125 C 26.210938 27.167969 25.285156 26.292969 24.15625 26.292969 Z M 24.15625 26.292969 " fill-opacity="1" fill-rule="nonzero"/><g clip-path="url(#2746504b18)"><path fill="#000000" d="M 41.625 37.328125 C 41.347656 37.328125 41.109375 37.089844 41.109375 36.820312 L 41.109375 34.871094 C 41.109375 33.695312 40.289062 32.753906 39.261719 32.753906 L 33.367188 32.753906 C 32.339844 32.753906 31.519531 33.695312 31.519531 34.871094 L 31.519531 36.820312 C 31.519531 37.089844 31.277344 37.328125 31.003906 37.328125 C 30.730469 37.328125 30.492188 37.125 30.492188 36.820312 L 30.492188 34.871094 C 30.492188 33.15625 31.792969 31.742188 33.367188 31.742188 L 39.292969 31.742188 C 40.871094 31.742188 42.171875 33.15625 42.171875 34.871094 L 42.171875 36.820312 C 42.136719 37.125 41.933594 37.328125 41.625 37.328125 Z M 41.625 37.328125 " fill-opacity="1" fill-rule="nonzero"/></g><path fill="#000000" d="M 36.3125 31.304688 C 34.636719 31.304688 33.230469 29.960938 33.230469 28.277344 C 33.230469 26.628906 34.601562 25.25 36.3125 25.25 C 37.992188 25.25 39.398438 26.597656 39.398438 28.277344 C 39.363281 29.960938 37.992188 31.304688 36.3125 31.304688 Z M 36.3125 26.292969 C 35.183594 26.292969 34.257812 27.203125 34.257812 28.3125 C 34.257812 29.421875 35.183594 30.332031 36.3125 30.332031 C 37.445312 30.332031 38.371094 29.421875 38.371094 28.3125 C 38.335938 27.167969 37.445312 26.292969 36.3125 26.292969 Z M 36.3125 26.292969 " fill-opacity="1" fill-rule="nonzero"/><path fill="#000000" d="M 30.082031 19.835938 C 29.875 19.835938 29.667969 19.703125 29.601562 19.535156 C 29.257812 18.691406 28.300781 16.945312 27.441406 16.945312 L 24.15625 16.945312 C 23.878906 16.945312 23.640625 16.707031 23.640625 16.4375 C 23.640625 16.171875 23.878906 15.933594 24.15625 15.933594 L 27.441406 15.933594 C 28.847656 15.933594 29.910156 17.816406 30.355469 18.691406 L 34.910156 17.078125 C 35.183594 16.976562 35.457031 17.113281 35.5625 17.382812 C 35.664062 17.648438 35.527344 17.917969 35.253906 18.019531 L 30.25 19.769531 C 30.183594 19.835938 30.113281 19.835938 30.082031 19.835938 Z M 30.082031 19.835938 " fill-opacity="1" fill-rule="nonzero"/><path fill="#000000" d="M 18.261719 19.835938 C 18.195312 19.835938 18.160156 19.835938 18.089844 19.800781 L 13.089844 18.054688 C 12.816406 17.953125 12.679688 17.683594 12.78125 17.414062 C 12.886719 17.144531 13.160156 17.011719 13.433594 17.113281 L 17.988281 18.726562 C 18.433594 17.816406 19.496094 15.96875 20.898438 15.96875 L 24.1875 15.96875 C 24.460938 15.96875 24.703125 16.203125 24.703125 16.472656 C 24.703125 16.742188 24.460938 16.976562 24.1875 16.976562 L 20.898438 16.976562 C 20.078125 16.976562 19.085938 18.726562 18.742188 19.566406 C 18.640625 19.734375 18.46875 19.835938 18.261719 19.835938 Z M 18.261719 19.835938 " fill-opacity="1" fill-rule="nonzero"/><path fill="#000000" d="M 21.207031 25.050781 C 20.933594 25.050781 20.695312 24.8125 20.695312 24.546875 L 20.695312 19.835938 C 20.695312 19.566406 20.933594 19.332031 21.207031 19.332031 C 21.484375 19.332031 21.722656 19.566406 21.722656 19.835938 L 21.722656 24.546875 C 21.722656 24.847656 21.484375 25.050781 21.207031 25.050781 Z M 21.207031 25.050781 " fill-opacity="1" fill-rule="nonzero"/><path fill="#000000" d="M 27.101562 25.050781 C 26.824219 25.050781 26.585938 24.8125 26.585938 24.546875 L 26.585938 19.835938 C 26.585938 19.566406 26.824219 19.332031 27.101562 19.332031 C 27.375 19.332031 27.613281 19.566406 27.613281 19.835938 L 27.613281 24.546875 C 27.613281 24.847656 27.410156 25.050781 27.101562 25.050781 Z M 27.101562 25.050781 " fill-opacity="1" fill-rule="nonzero"/><g clip-path="url(#49fc3241fc)"><path fill="#000000" d="M 24.15625 15.496094 C 22.476562 15.496094 21.070312 14.152344 21.070312 12.46875 C 21.070312 10.789062 22.441406 9.441406 24.15625 9.441406 C 25.832031 9.441406 27.238281 10.789062 27.238281 12.46875 C 27.238281 14.152344 25.867188 15.496094 24.15625 15.496094 Z M 24.15625 10.484375 C 23.023438 10.484375 22.097656 11.394531 22.097656 12.503906 C 22.097656 13.613281 23.023438 14.523438 24.15625 14.523438 C 25.285156 14.523438 26.210938 13.613281 26.210938 12.503906 C 26.210938 11.394531 25.285156 10.484375 24.15625 10.484375 Z M 24.15625 10.484375 " fill-opacity="1" fill-rule="nonzero"/></g></svg>