<svg xmlns="http://www.w3.org/2000/svg" xmlns:xlink="http://www.w3.org/1999/xlink" width="64" zoomAndPan="magnify" viewBox="0 0 48 48" height="64" preserveAspectRatio="xMidYMid meet" version="1.0"><defs><clipPath id="7de20f0702"><path d="M 8.375 7.136719 L 37.765625 7.136719 L 37.765625 40.199219 L 8.375 40.199219 Z M 8.375 7.136719 " clip-rule="nonzero"/></clipPath><clipPath id="b3a6b6c806"><path d="M 8.375 30 L 10 30 L 10 32 L 8.375 32 Z M 8.375 30 " clip-rule="nonzero"/></clipPath></defs><path fill="#000000" d="M 12.183594 23.113281 L 14.363281 23.113281 C 14.507812 23.113281 14.644531 23.085938 14.777344 23.027344 C 14.914062 22.972656 15.03125 22.894531 15.132812 22.789062 C 15.234375 22.6875 15.3125 22.566406 15.367188 22.433594 C 15.421875 22.296875 15.449219 22.15625 15.449219 22.011719 L 15.449219 19.804688 C 15.449219 19.660156 15.421875 19.519531 15.367188 19.382812 C 15.3125 19.25 15.234375 19.128906 15.132812 19.027344 C 15.03125 18.921875 14.914062 18.84375 14.777344 18.789062 C 14.644531 18.730469 14.507812 18.703125 14.363281 18.703125 L 12.183594 18.703125 C 12.042969 18.703125 11.902344 18.730469 11.769531 18.789062 C 11.636719 18.84375 11.519531 18.921875 11.414062 19.027344 C 11.3125 19.128906 11.234375 19.25 11.179688 19.382812 C 11.125 19.519531 11.097656 19.660156 11.097656 19.804688 L 11.097656 22.011719 C 11.097656 22.15625 11.125 22.296875 11.179688 22.433594 C 11.234375 22.566406 11.3125 22.6875 11.414062 22.789062 C 11.519531 22.894531 11.636719 22.972656 11.769531 23.027344 C 11.902344 23.085938 12.042969 23.113281 12.183594 23.113281 Z M 12.183594 19.804688 L 14.363281 19.804688 L 14.363281 22.011719 L 12.183594 22.011719 Z M 12.183594 19.804688 " fill-opacity="1" fill-rule="nonzero"/><path fill="#000000" d="M 18.714844 23.113281 L 20.894531 23.113281 C 21.039062 23.113281 21.175781 23.085938 21.308594 23.027344 C 21.441406 22.972656 21.558594 22.894531 21.664062 22.789062 C 21.765625 22.6875 21.84375 22.566406 21.898438 22.433594 C 21.953125 22.296875 21.980469 22.15625 21.980469 22.011719 L 21.980469 19.804688 C 21.980469 19.660156 21.953125 19.519531 21.898438 19.382812 C 21.84375 19.25 21.765625 19.128906 21.664062 19.027344 C 21.558594 18.921875 21.441406 18.84375 21.308594 18.789062 C 21.175781 18.730469 21.039062 18.703125 20.894531 18.703125 L 18.714844 18.703125 C 18.570312 18.703125 18.433594 18.730469 18.300781 18.789062 C 18.167969 18.84375 18.046875 18.921875 17.945312 19.027344 C 17.84375 19.128906 17.765625 19.25 17.710938 19.382812 C 17.65625 19.519531 17.628906 19.660156 17.628906 19.804688 L 17.628906 22.011719 C 17.628906 22.15625 17.65625 22.296875 17.710938 22.433594 C 17.765625 22.566406 17.84375 22.6875 17.945312 22.789062 C 18.046875 22.894531 18.167969 22.972656 18.300781 23.027344 C 18.433594 23.085938 18.570312 23.113281 18.714844 23.113281 Z M 18.714844 19.804688 L 20.894531 19.804688 L 20.894531 22.011719 L 18.714844 22.011719 Z M 18.714844 19.804688 " fill-opacity="1" fill-rule="nonzero"/><path fill="#000000" d="M 25.246094 23.113281 L 27.421875 23.113281 C 27.566406 23.113281 27.707031 23.085938 27.839844 23.027344 C 27.972656 22.972656 28.089844 22.894531 28.191406 22.789062 C 28.296875 22.6875 28.375 22.566406 28.429688 22.433594 C 28.484375 22.296875 28.511719 22.15625 28.511719 22.011719 L 28.511719 19.804688 C 28.511719 19.660156 28.484375 19.519531 28.429688 19.382812 C 28.375 19.25 28.296875 19.128906 28.191406 19.027344 C 28.089844 18.921875 27.972656 18.84375 27.839844 18.789062 C 27.707031 18.730469 27.566406 18.703125 27.421875 18.703125 L 25.246094 18.703125 C 25.101562 18.703125 24.964844 18.730469 24.832031 18.789062 C 24.695312 18.84375 24.578125 18.921875 24.476562 19.027344 C 24.375 19.128906 24.296875 19.25 24.242188 19.382812 C 24.1875 19.519531 24.160156 19.660156 24.160156 19.804688 L 24.160156 22.011719 C 24.160156 22.15625 24.1875 22.296875 24.242188 22.433594 C 24.296875 22.566406 24.375 22.6875 24.476562 22.789062 C 24.578125 22.894531 24.695312 22.972656 24.832031 23.027344 C 24.964844 23.085938 25.101562 23.113281 25.246094 23.113281 Z M 25.246094 19.804688 L 27.421875 19.804688 L 27.421875 22.011719 L 25.246094 22.011719 Z M 25.246094 19.804688 " fill-opacity="1" fill-rule="nonzero"/><path fill="#000000" d="M 31.777344 23.113281 L 33.953125 23.113281 C 34.097656 23.113281 34.238281 23.085938 34.371094 23.027344 C 34.503906 22.972656 34.621094 22.894531 34.722656 22.789062 C 34.824219 22.6875 34.90625 22.566406 34.960938 22.433594 C 35.015625 22.296875 35.042969 22.15625 35.042969 22.011719 L 35.042969 19.804688 C 35.042969 19.660156 35.015625 19.519531 34.960938 19.382812 C 34.90625 19.25 34.824219 19.128906 34.722656 19.027344 C 34.621094 18.921875 34.503906 18.84375 34.371094 18.789062 C 34.238281 18.730469 34.097656 18.703125 33.953125 18.703125 L 31.777344 18.703125 C 31.632812 18.703125 31.492188 18.730469 31.359375 18.789062 C 31.226562 18.84375 31.109375 18.921875 31.007812 19.027344 C 30.90625 19.128906 30.828125 19.25 30.773438 19.382812 C 30.714844 19.519531 30.6875 19.660156 30.6875 19.804688 L 30.6875 22.011719 C 30.6875 22.15625 30.714844 22.296875 30.773438 22.433594 C 30.828125 22.566406 30.90625 22.6875 31.007812 22.789062 C 31.109375 22.894531 31.226562 22.972656 31.359375 23.027344 C 31.492188 23.085938 31.632812 23.113281 31.777344 23.113281 Z M 31.777344 19.804688 L 33.953125 19.804688 L 33.953125 22.011719 L 31.777344 22.011719 Z M 31.777344 19.804688 " fill-opacity="1" fill-rule="nonzero"/><path fill="#000000" d="M 11.097656 28.074219 C 11.097656 28.21875 11.125 28.359375 11.179688 28.492188 C 11.234375 28.628906 11.3125 28.75 11.414062 28.851562 C 11.519531 28.953125 11.636719 29.035156 11.769531 29.089844 C 11.902344 29.148438 12.042969 29.175781 12.183594 29.175781 L 14.363281 29.175781 C 14.507812 29.175781 14.644531 29.148438 14.777344 29.089844 C 14.914062 29.035156 15.03125 28.953125 15.132812 28.851562 C 15.234375 28.75 15.3125 28.628906 15.367188 28.492188 C 15.421875 28.359375 15.449219 28.21875 15.449219 28.074219 L 15.449219 25.867188 C 15.449219 25.722656 15.421875 25.582031 15.367188 25.445312 C 15.3125 25.3125 15.234375 25.191406 15.132812 25.089844 C 15.03125 24.984375 14.914062 24.90625 14.777344 24.851562 C 14.644531 24.792969 14.507812 24.765625 14.363281 24.765625 L 12.183594 24.765625 C 12.042969 24.765625 11.902344 24.792969 11.769531 24.851562 C 11.636719 24.90625 11.519531 24.984375 11.414062 25.089844 C 11.3125 25.191406 11.234375 25.3125 11.179688 25.445312 C 11.125 25.582031 11.097656 25.722656 11.097656 25.867188 Z M 12.183594 25.867188 L 14.363281 25.867188 L 14.363281 28.074219 L 12.183594 28.074219 Z M 12.183594 25.867188 " fill-opacity="1" fill-rule="nonzero"/><path fill="#000000" d="M 17.628906 27.796875 C 17.628906 27.941406 17.65625 28.082031 17.710938 28.21875 C 17.765625 28.355469 17.84375 28.472656 17.945312 28.574219 C 18.046875 28.679688 18.167969 28.757812 18.300781 28.816406 C 18.433594 28.871094 18.570312 28.898438 18.714844 28.898438 L 20.894531 28.898438 C 21.039062 28.898438 21.175781 28.871094 21.308594 28.816406 C 21.441406 28.757812 21.558594 28.679688 21.664062 28.574219 C 21.765625 28.472656 21.84375 28.355469 21.898438 28.21875 C 21.953125 28.082031 21.980469 27.941406 21.980469 27.796875 L 21.980469 25.59375 C 21.980469 25.445312 21.953125 25.304688 21.898438 25.171875 C 21.84375 25.035156 21.765625 24.917969 21.664062 24.8125 C 21.558594 24.710938 21.441406 24.628906 21.308594 24.574219 C 21.175781 24.519531 21.039062 24.492188 20.894531 24.492188 L 18.714844 24.492188 C 18.570312 24.492188 18.433594 24.519531 18.300781 24.574219 C 18.167969 24.628906 18.046875 24.710938 17.945312 24.8125 C 17.84375 24.917969 17.765625 25.035156 17.710938 25.171875 C 17.65625 25.304688 17.628906 25.445312 17.628906 25.59375 Z M 18.714844 25.59375 L 20.894531 25.59375 L 20.894531 27.796875 L 18.714844 27.796875 Z M 18.714844 25.59375 " fill-opacity="1" fill-rule="nonzero"/><path fill="#000000" d="M 24.160156 27.796875 C 24.160156 27.941406 24.1875 28.082031 24.242188 28.21875 C 24.296875 28.355469 24.375 28.472656 24.476562 28.574219 C 24.578125 28.679688 24.695312 28.757812 24.832031 28.816406 C 24.964844 28.871094 25.101562 28.898438 25.246094 28.898438 L 27.421875 28.898438 C 27.566406 28.898438 27.707031 28.871094 27.839844 28.816406 C 27.972656 28.757812 28.089844 28.679688 28.191406 28.574219 C 28.296875 28.472656 28.375 28.355469 28.429688 28.21875 C 28.484375 28.082031 28.511719 27.941406 28.511719 27.796875 L 28.511719 25.59375 C 28.511719 25.445312 28.484375 25.304688 28.429688 25.171875 C 28.375 25.035156 28.296875 24.917969 28.191406 24.8125 C 28.089844 24.710938 27.972656 24.628906 27.839844 24.574219 C 27.707031 24.519531 27.566406 24.492188 27.421875 24.492188 L 25.246094 24.492188 C 25.101562 24.492188 24.964844 24.519531 24.832031 24.574219 C 24.695312 24.628906 24.578125 24.710938 24.476562 24.8125 C 24.375 24.917969 24.296875 25.035156 24.242188 25.171875 C 24.1875 25.304688 24.160156 25.445312 24.160156 25.59375 Z M 25.246094 25.59375 L 27.421875 25.59375 L 27.421875 27.796875 L 25.246094 27.796875 Z M 25.246094 25.59375 " fill-opacity="1" fill-rule="nonzero"/><path fill="#000000" d="M 30.6875 27.796875 C 30.6875 27.941406 30.714844 28.082031 30.773438 28.21875 C 30.828125 28.355469 30.90625 28.472656 31.007812 28.574219 C 31.109375 28.679688 31.226562 28.757812 31.359375 28.816406 C 31.492188 28.871094 31.632812 28.898438 31.777344 28.898438 L 33.953125 28.898438 C 34.097656 28.898438 34.238281 28.871094 34.371094 28.816406 C 34.503906 28.757812 34.621094 28.679688 34.722656 28.574219 C 34.824219 28.472656 34.90625 28.355469 34.960938 28.21875 C 35.015625 28.082031 35.042969 27.941406 35.042969 27.796875 L 35.042969 25.59375 C 35.042969 25.445312 35.015625 25.304688 34.960938 25.171875 C 34.90625 25.035156 34.824219 24.917969 34.722656 24.8125 C 34.621094 24.710938 34.503906 24.628906 34.371094 24.574219 C 34.238281 24.519531 34.097656 24.492188 33.953125 24.492188 L 31.777344 24.492188 C 31.632812 24.492188 31.492188 24.519531 31.359375 24.574219 C 31.226562 24.628906 31.109375 24.710938 31.007812 24.8125 C 30.90625 24.917969 30.828125 25.035156 30.773438 25.171875 C 30.714844 25.304688 30.6875 25.445312 30.6875 25.59375 Z M 31.777344 25.59375 L 33.953125 25.59375 L 33.953125 27.796875 L 31.777344 27.796875 Z M 31.777344 25.59375 " fill-opacity="1" fill-rule="nonzero"/><path fill="#000000" d="M 11.097656 33.582031 C 11.097656 33.730469 11.125 33.871094 11.179688 34.003906 C 11.234375 34.140625 11.3125 34.257812 11.414062 34.363281 C 11.519531 34.464844 11.636719 34.546875 11.769531 34.601562 C 11.902344 34.65625 12.042969 34.683594 12.183594 34.683594 L 14.363281 34.683594 C 14.507812 34.683594 14.644531 34.65625 14.777344 34.601562 C 14.914062 34.546875 15.03125 34.464844 15.132812 34.363281 C 15.234375 34.257812 15.3125 34.140625 15.367188 34.003906 C 15.421875 33.871094 15.449219 33.730469 15.449219 33.582031 L 15.449219 31.378906 C 15.449219 31.234375 15.421875 31.09375 15.367188 30.957031 C 15.3125 30.820312 15.234375 30.703125 15.132812 30.597656 C 15.03125 30.496094 14.914062 30.417969 14.777344 30.359375 C 14.644531 30.304688 14.507812 30.277344 14.363281 30.277344 L 12.183594 30.277344 C 12.042969 30.277344 11.902344 30.304688 11.769531 30.359375 C 11.636719 30.417969 11.519531 30.496094 11.414062 30.597656 C 11.3125 30.703125 11.234375 30.820312 11.179688 30.957031 C 11.125 31.09375 11.097656 31.234375 11.097656 31.378906 Z M 12.183594 31.378906 L 14.363281 31.378906 L 14.363281 33.582031 L 12.183594 33.582031 Z M 12.183594 31.378906 " fill-opacity="1" fill-rule="nonzero"/><path fill="#000000" d="M 17.628906 33.582031 C 17.628906 33.730469 17.65625 33.871094 17.710938 34.003906 C 17.765625 34.140625 17.84375 34.257812 17.945312 34.363281 C 18.046875 34.464844 18.167969 34.546875 18.300781 34.601562 C 18.433594 34.65625 18.570312 34.683594 18.714844 34.683594 L 20.894531 34.683594 C 21.039062 34.683594 21.175781 34.65625 21.308594 34.601562 C 21.441406 34.546875 21.558594 34.464844 21.664062 34.363281 C 21.765625 34.257812 21.84375 34.140625 21.898438 34.003906 C 21.953125 33.871094 21.980469 33.730469 21.980469 33.582031 L 21.980469 31.378906 C 21.980469 31.234375 21.953125 31.09375 21.898438 30.957031 C 21.84375 30.820312 21.765625 30.703125 21.664062 30.597656 C 21.558594 30.496094 21.441406 30.417969 21.308594 30.359375 C 21.175781 30.304688 21.039062 30.277344 20.894531 30.277344 L 18.714844 30.277344 C 18.570312 30.277344 18.433594 30.304688 18.300781 30.359375 C 18.167969 30.417969 18.046875 30.496094 17.945312 30.597656 C 17.84375 30.703125 17.765625 30.820312 17.710938 30.957031 C 17.65625 31.09375 17.628906 31.234375 17.628906 31.378906 Z M 18.714844 31.378906 L 20.894531 31.378906 L 20.894531 33.582031 L 18.714844 33.582031 Z M 18.714844 31.378906 " fill-opacity="1" fill-rule="nonzero"/><path fill="#000000" d="M 24.160156 33.582031 C 24.160156 33.730469 24.1875 33.871094 24.242188 34.003906 C 24.296875 34.140625 24.375 34.257812 24.476562 34.363281 C 24.578125 34.464844 24.695312 34.546875 24.832031 34.601562 C 24.964844 34.65625 25.101562 34.683594 25.246094 34.683594 L 27.421875 34.683594 C 27.566406 34.683594 27.707031 34.65625 27.839844 34.601562 C 27.972656 34.546875 28.089844 34.464844 28.191406 34.363281 C 28.296875 34.257812 28.375 34.140625 28.429688 34.003906 C 28.484375 33.871094 28.511719 33.730469 28.511719 33.582031 L 28.511719 31.378906 C 28.511719 31.234375 28.484375 31.09375 28.429688 30.957031 C 28.375 30.820312 28.296875 30.703125 28.191406 30.597656 C 28.089844 30.496094 27.972656 30.417969 27.839844 30.359375 C 27.707031 30.304688 27.566406 30.277344 27.421875 30.277344 L 25.246094 30.277344 C 25.101562 30.277344 24.964844 30.304688 24.832031 30.359375 C 24.695312 30.417969 24.578125 30.496094 24.476562 30.597656 C 24.375 30.703125 24.296875 30.820312 24.242188 30.957031 C 24.1875 31.09375 24.160156 31.234375 24.160156 31.378906 Z M 25.246094 31.378906 L 27.421875 31.378906 L 27.421875 33.582031 L 25.246094 33.582031 Z M 25.246094 31.378906 " fill-opacity="1" fill-rule="nonzero"/><g clip-path="url(#7de20f0702)"><path fill="#000000" d="M 35.042969 9.335938 L 33.410156 9.335938 L 33.410156 9.0625 C 33.410156 8.804688 33.363281 8.558594 33.265625 8.324219 C 33.167969 8.085938 33.03125 7.878906 32.851562 7.695312 C 32.671875 7.515625 32.46875 7.375 32.234375 7.277344 C 32 7.179688 31.757812 7.132812 31.503906 7.132812 C 31.253906 7.132812 31.007812 7.179688 30.777344 7.277344 C 30.542969 7.375 30.335938 7.515625 30.160156 7.695312 C 29.980469 7.878906 29.84375 8.085938 29.746094 8.324219 C 29.648438 8.558594 29.601562 8.804688 29.601562 9.0625 L 29.601562 9.335938 L 24.972656 9.335938 L 24.972656 9.0625 C 24.972656 8.804688 24.925781 8.558594 24.828125 8.324219 C 24.734375 8.085938 24.59375 7.878906 24.417969 7.695312 C 24.238281 7.515625 24.03125 7.375 23.796875 7.277344 C 23.566406 7.179688 23.324219 7.132812 23.070312 7.132812 C 22.816406 7.132812 22.574219 7.179688 22.339844 7.277344 C 22.109375 7.375 21.902344 7.515625 21.722656 7.695312 C 21.542969 7.878906 21.40625 8.085938 21.308594 8.324219 C 21.214844 8.558594 21.164062 8.804688 21.164062 9.0625 L 21.164062 9.335938 L 16.539062 9.335938 L 16.539062 9.0625 C 16.539062 8.804688 16.492188 8.558594 16.394531 8.324219 C 16.296875 8.085938 16.160156 7.878906 15.980469 7.695312 C 15.800781 7.515625 15.597656 7.375 15.363281 7.277344 C 15.128906 7.179688 14.886719 7.132812 14.632812 7.132812 C 14.382812 7.132812 14.140625 7.179688 13.90625 7.277344 C 13.671875 7.375 13.464844 7.515625 13.289062 7.695312 C 13.109375 7.878906 12.972656 8.085938 12.875 8.324219 C 12.777344 8.558594 12.730469 8.804688 12.730469 9.0625 L 12.730469 9.335938 L 11.097656 9.335938 C 10.738281 9.335938 10.390625 9.40625 10.054688 9.546875 C 9.722656 9.6875 9.429688 9.886719 9.175781 10.144531 C 8.917969 10.402344 8.722656 10.699219 8.585938 11.039062 C 8.445312 11.375 8.375 11.726562 8.375 12.089844 L 8.375 29.175781 C 8.375 29.328125 8.429688 29.457031 8.535156 29.5625 C 8.640625 29.671875 8.769531 29.726562 8.921875 29.726562 C 9.070312 29.726562 9.199219 29.671875 9.304688 29.5625 C 9.410156 29.457031 9.464844 29.328125 9.464844 29.175781 L 9.464844 17.050781 L 36.675781 17.050781 L 36.675781 30.277344 C 36.675781 30.429688 36.621094 30.558594 36.515625 30.667969 C 36.410156 30.773438 36.28125 30.828125 36.132812 30.828125 L 33.410156 30.828125 C 33.050781 30.828125 32.703125 30.898438 32.371094 31.039062 C 32.035156 31.179688 31.742188 31.378906 31.488281 31.636719 C 31.230469 31.894531 31.035156 32.191406 30.898438 32.527344 C 30.757812 32.867188 30.6875 33.21875 30.6875 33.582031 L 30.6875 36.339844 C 30.6875 36.492188 30.636719 36.621094 30.53125 36.726562 C 30.421875 36.835938 30.296875 36.890625 30.144531 36.890625 L 11.097656 36.855469 C 10.878906 36.855469 10.671875 36.8125 10.472656 36.730469 C 10.273438 36.644531 10.09375 36.527344 9.941406 36.371094 C 9.789062 36.214844 9.671875 36.039062 9.589844 35.835938 C 9.503906 35.632812 9.464844 35.421875 9.464844 35.203125 L 9.464844 33.582031 C 9.464844 33.429688 9.410156 33.300781 9.304688 33.191406 C 9.199219 33.085938 9.070312 33.03125 8.921875 33.03125 C 8.769531 33.03125 8.640625 33.085938 8.535156 33.191406 C 8.429688 33.300781 8.375 33.429688 8.375 33.582031 L 8.375 37.441406 C 8.375 37.804688 8.445312 38.15625 8.585938 38.496094 C 8.722656 38.832031 8.917969 39.128906 9.175781 39.386719 C 9.429688 39.644531 9.722656 39.84375 10.054688 39.984375 C 10.390625 40.125 10.738281 40.195312 11.097656 40.195312 L 35.042969 40.195312 C 35.402344 40.195312 35.75 40.125 36.082031 39.984375 C 36.417969 39.84375 36.710938 39.644531 36.964844 39.386719 C 37.222656 39.128906 37.417969 38.832031 37.554688 38.496094 C 37.695312 38.15625 37.761719 37.804688 37.765625 37.441406 L 37.765625 12.089844 C 37.761719 11.726562 37.695312 11.375 37.554688 11.039062 C 37.417969 10.699219 37.222656 10.402344 36.964844 10.144531 C 36.710938 9.886719 36.417969 9.6875 36.082031 9.546875 C 35.75 9.40625 35.402344 9.335938 35.042969 9.335938 Z M 30.6875 9.0625 C 30.6875 8.832031 30.769531 8.636719 30.929688 8.476562 C 31.085938 8.316406 31.28125 8.234375 31.503906 8.234375 C 31.730469 8.234375 31.921875 8.316406 32.082031 8.476562 C 32.242188 8.636719 32.320312 8.832031 32.320312 9.0625 L 32.320312 11.265625 C 32.320312 11.492188 32.242188 11.6875 32.082031 11.847656 C 31.921875 12.011719 31.730469 12.089844 31.503906 12.089844 C 31.28125 12.089844 31.085938 12.011719 30.929688 11.847656 C 30.769531 11.6875 30.6875 11.492188 30.6875 11.265625 Z M 22.253906 9.0625 C 22.253906 8.832031 22.332031 8.636719 22.492188 8.476562 C 22.652344 8.316406 22.84375 8.234375 23.070312 8.234375 C 23.296875 8.234375 23.488281 8.316406 23.648438 8.476562 C 23.804688 8.636719 23.886719 8.832031 23.886719 9.0625 L 23.886719 11.265625 C 23.886719 11.492188 23.804688 11.6875 23.648438 11.847656 C 23.488281 12.011719 23.296875 12.089844 23.070312 12.089844 C 22.84375 12.089844 22.652344 12.011719 22.492188 11.847656 C 22.332031 11.6875 22.253906 11.492188 22.253906 11.265625 Z M 13.816406 9.0625 C 13.816406 8.832031 13.898438 8.636719 14.058594 8.476562 C 14.214844 8.316406 14.410156 8.234375 14.632812 8.234375 C 14.859375 8.234375 15.050781 8.316406 15.210938 8.476562 C 15.371094 8.636719 15.449219 8.832031 15.449219 9.0625 L 15.449219 11.265625 C 15.449219 11.492188 15.371094 11.6875 15.210938 11.847656 C 15.050781 12.011719 14.859375 12.089844 14.632812 12.089844 C 14.410156 12.089844 14.214844 12.011719 14.058594 11.847656 C 13.898438 11.6875 13.816406 11.492188 13.816406 11.265625 Z M 9.464844 15.949219 L 9.464844 12.089844 C 9.464844 11.871094 9.503906 11.660156 9.589844 11.457031 C 9.671875 11.257812 9.789062 11.078125 9.941406 10.921875 C 10.09375 10.765625 10.273438 10.648438 10.472656 10.5625 C 10.671875 10.480469 10.878906 10.4375 11.097656 10.4375 L 12.730469 10.4375 L 12.730469 11.265625 C 12.730469 11.519531 12.777344 11.765625 12.875 12.003906 C 12.972656 12.238281 13.109375 12.449219 13.289062 12.628906 C 13.464844 12.808594 13.671875 12.949219 13.90625 13.046875 C 14.140625 13.144531 14.382812 13.195312 14.632812 13.195312 C 14.886719 13.195312 15.128906 13.144531 15.363281 13.046875 C 15.597656 12.949219 15.800781 12.808594 15.980469 12.628906 C 16.160156 12.449219 16.296875 12.238281 16.394531 12.003906 C 16.492188 11.765625 16.539062 11.519531 16.539062 11.265625 L 16.539062 10.4375 L 21.164062 10.4375 L 21.164062 11.265625 C 21.164062 11.519531 21.214844 11.765625 21.308594 12.003906 C 21.40625 12.238281 21.542969 12.449219 21.722656 12.628906 C 21.902344 12.808594 22.109375 12.949219 22.339844 13.046875 C 22.574219 13.144531 22.816406 13.195312 23.070312 13.195312 C 23.324219 13.195312 23.566406 13.144531 23.796875 13.046875 C 24.03125 12.949219 24.238281 12.808594 24.417969 12.628906 C 24.59375 12.449219 24.734375 12.238281 24.828125 12.003906 C 24.925781 11.765625 24.972656 11.519531 24.972656 11.265625 L 24.972656 10.4375 L 29.601562 10.4375 L 29.601562 11.265625 C 29.601562 11.519531 29.648438 11.765625 29.746094 12.003906 C 29.84375 12.238281 29.980469 12.449219 30.160156 12.628906 C 30.335938 12.808594 30.542969 12.949219 30.777344 13.046875 C 31.007812 13.144531 31.253906 13.195312 31.503906 13.195312 C 31.757812 13.195312 32 13.144531 32.234375 13.046875 C 32.46875 12.949219 32.671875 12.808594 32.851562 12.628906 C 33.03125 12.449219 33.167969 12.238281 33.265625 12.003906 C 33.363281 11.765625 33.410156 11.519531 33.410156 11.265625 L 33.410156 10.4375 L 35.042969 10.4375 C 35.257812 10.4375 35.46875 10.480469 35.667969 10.5625 C 35.867188 10.648438 36.042969 10.765625 36.195312 10.921875 C 36.351562 11.078125 36.46875 11.257812 36.550781 11.457031 C 36.632812 11.660156 36.675781 11.871094 36.675781 12.089844 L 36.675781 15.949219 Z M 31.777344 33.582031 C 31.777344 33.363281 31.820312 33.152344 31.902344 32.949219 C 31.984375 32.746094 32.101562 32.570312 32.253906 32.414062 C 32.410156 32.257812 32.585938 32.140625 32.785156 32.054688 C 32.984375 31.972656 33.195312 31.929688 33.410156 31.929688 L 35.90625 31.929688 L 31.777344 36.113281 Z M 35.042969 39.09375 L 11.097656 39.09375 C 10.875 39.09375 10.664062 39.050781 10.460938 38.960938 C 10.257812 38.875 10.082031 38.75 9.925781 38.589844 C 9.773438 38.429688 9.65625 38.246094 9.574219 38.039062 C 9.496094 37.832031 9.457031 37.617188 9.464844 37.390625 C 9.945312 37.765625 10.488281 37.953125 11.09375 37.957031 L 30.324219 37.992188 C 31.078125 37.992188 31.722656 37.722656 32.257812 37.183594 L 36.675781 32.710938 L 36.675781 37.441406 C 36.675781 37.660156 36.632812 37.871094 36.550781 38.074219 C 36.46875 38.277344 36.351562 38.453125 36.195312 38.609375 C 36.042969 38.765625 35.867188 38.882812 35.667969 38.96875 C 35.46875 39.050781 35.257812 39.09375 35.042969 39.09375 Z M 35.042969 39.09375 " fill-opacity="1" fill-rule="nonzero"/></g><g clip-path="url(#b3a6b6c806)"><path fill="#000000" d="M 9.464844 31.378906 C 9.464844 31.53125 9.410156 31.660156 9.304688 31.769531 C 9.199219 31.875 9.070312 31.929688 8.921875 31.929688 C 8.769531 31.929688 8.640625 31.875 8.535156 31.769531 C 8.429688 31.660156 8.375 31.53125 8.375 31.378906 C 8.375 31.226562 8.429688 31.097656 8.535156 30.988281 C 8.640625 30.882812 8.769531 30.828125 8.921875 30.828125 C 9.070312 30.828125 9.199219 30.882812 9.304688 30.988281 C 9.410156 31.097656 9.464844 31.226562 9.464844 31.378906 Z M 9.464844 31.378906 " fill-opacity="1" fill-rule="nonzero"/></g></svg>