<svg xmlns="http://www.w3.org/2000/svg" xmlns:xlink="http://www.w3.org/1999/xlink" width="64" zoomAndPan="magnify" viewBox="0 0 48 48" height="64" preserveAspectRatio="xMidYMid meet" version="1.0"><defs><clipPath id="a169afd9b9"><path d="M 8.605469 22 L 39.464844 22 L 39.464844 39.679688 L 8.605469 39.679688 Z M 8.605469 22 " clip-rule="nonzero"/></clipPath><clipPath id="4b71f6faac"><path d="M 15 7.351562 L 33 7.351562 L 33 25 L 15 25 Z M 15 7.351562 " clip-rule="nonzero"/></clipPath></defs><g clip-path="url(#a169afd9b9)"><path fill="#231f20" d="M 34.472656 24.945312 L 31.847656 23.070312 L 30.953125 24.324219 L 33.574219 26.203125 C 36.296875 28.144531 37.917969 31.296875 37.917969 34.636719 L 37.917969 37.378906 C 37.917969 37.804688 37.570312 38.148438 37.144531 38.148438 L 10.921875 38.148438 C 10.496094 38.148438 10.152344 37.804688 10.152344 37.378906 L 10.152344 34.484375 C 10.152344 31.238281 11.707031 28.140625 14.308594 26.183594 L 16.984375 24.179688 L 16.054688 22.945312 L 13.378906 24.953125 C 10.390625 27.183594 8.605469 30.75 8.605469 34.476562 L 8.605469 37.371094 C 8.605469 38.644531 9.640625 39.679688 10.921875 39.679688 L 37.144531 39.679688 C 38.421875 39.679688 39.464844 38.644531 39.464844 37.367188 L 39.464844 34.625 C 39.464844 30.796875 37.597656 27.179688 34.472656 24.945312 Z M 34.472656 24.945312 " fill-opacity="1" fill-rule="nonzero"/></g><g clip-path="url(#4b71f6faac)"><path fill="#231f20" d="M 24.035156 24.285156 C 28.714844 24.285156 32.519531 20.488281 32.519531 15.820312 C 32.519531 11.148438 28.714844 7.351562 24.035156 7.351562 C 19.355469 7.351562 15.550781 11.148438 15.550781 15.820312 C 15.550781 20.488281 19.355469 24.285156 24.035156 24.285156 Z M 24.035156 8.890625 C 27.859375 8.890625 30.980469 12.003906 30.980469 15.820312 C 30.980469 19.632812 27.859375 22.746094 24.035156 22.746094 C 20.210938 22.746094 17.089844 19.640625 17.089844 15.820312 C 17.089844 11.996094 20.203125 8.890625 24.035156 8.890625 Z M 24.035156 8.890625 " fill-opacity="1" fill-rule="nonzero"/></g></svg>