<svg xmlns="http://www.w3.org/2000/svg" xmlns:xlink="http://www.w3.org/1999/xlink" width="64" zoomAndPan="magnify" viewBox="0 0 48 48" height="64" preserveAspectRatio="xMidYMid meet" version="1.0"><defs><clipPath id="6fd744189d"><path d="M 11.207031 3.949219 L 36.1875 3.949219 L 36.1875 39.214844 L 11.207031 39.214844 Z M 11.207031 3.949219 " clip-rule="nonzero"/></clipPath></defs><g clip-path="url(#6fd744189d)"><path fill="#000000" d="M 23.699219 39.214844 C 23.457031 39.214844 23.210938 39.125 23.019531 38.945312 C 22.898438 38.832031 20.042969 36.121094 17.148438 32.011719 C 15.441406 29.585938 14.078125 27.175781 13.097656 24.851562 C 11.855469 21.902344 11.226562 19.070312 11.226562 16.4375 C 11.226562 9.550781 16.820312 3.949219 23.703125 3.949219 C 30.582031 3.949219 36.175781 9.550781 36.175781 16.4375 C 36.175781 21.015625 34.1875 26.199219 30.257812 31.847656 C 27.367188 36.007812 24.515625 38.8125 24.398438 38.929688 C 24.203125 39.121094 23.953125 39.214844 23.699219 39.214844 Z M 23.703125 5.941406 C 17.917969 5.941406 13.214844 10.648438 13.214844 16.4375 C 13.214844 21.824219 16.226562 27.238281 18.75 30.832031 C 20.703125 33.609375 22.675781 35.757812 23.6875 36.800781 C 26.117188 34.210938 34.1875 24.964844 34.1875 16.4375 C 34.1875 10.648438 29.484375 5.941406 23.703125 5.941406 Z M 23.703125 20.722656 C 20.867188 20.722656 18.5625 18.414062 18.5625 15.582031 C 18.5625 12.746094 20.867188 10.4375 23.703125 10.4375 C 26.535156 10.4375 28.839844 12.746094 28.839844 15.582031 C 28.839844 18.414062 26.535156 20.722656 23.703125 20.722656 Z M 23.703125 12.429688 C 21.964844 12.429688 20.554688 13.84375 20.554688 15.582031 C 20.554688 17.316406 21.964844 18.730469 23.703125 18.730469 C 25.4375 18.730469 26.847656 17.316406 26.847656 15.582031 C 26.847656 13.84375 25.4375 12.429688 23.703125 12.429688 Z M 23.703125 12.429688 " fill-opacity="1" fill-rule="nonzero"/></g></svg>