<svg xmlns="http://www.w3.org/2000/svg" xmlns:xlink="http://www.w3.org/1999/xlink" width="64" zoomAndPan="magnify" viewBox="0 0 48 48" height="64" preserveAspectRatio="xMidYMid meet" version="1.0"><defs><clipPath id="e13e5a6c50"><path d="M 0.488281 0 L 47.507812 0 L 47.507812 47.019531 L 0.488281 47.019531 Z M 0.488281 0 " clip-rule="nonzero"/></clipPath><clipPath id="27bf6056dd"><path d="M 6.074219 5.582031 L 17 5.582031 L 17 17 L 6.074219 17 Z M 6.074219 5.582031 " clip-rule="nonzero"/></clipPath><clipPath id="5267bd9a73"><path d="M 6.074219 31 L 17 31 L 17 42.320312 L 6.074219 42.320312 Z M 6.074219 31 " clip-rule="nonzero"/></clipPath><clipPath id="b0a4169a48"><path d="M 31 5.582031 L 42.808594 5.582031 L 42.808594 17 L 31 17 Z M 31 5.582031 " clip-rule="nonzero"/></clipPath><clipPath id="113d0a7aab"><path d="M 31 31 L 42.808594 31 L 42.808594 42.320312 L 31 42.320312 Z M 31 31 " clip-rule="nonzero"/></clipPath></defs><g clip-path="url(#e13e5a6c50)"><path fill="#ffffff" d="M 0.488281 0 L 47.511719 0 L 47.511719 54.367188 L 0.488281 54.367188 Z M 0.488281 0 " fill-opacity="1" fill-rule="nonzero"/><path fill="#ffffff" d="M 0.488281 0 L 47.511719 0 L 47.511719 47.019531 L 0.488281 47.019531 Z M 0.488281 0 " fill-opacity="1" fill-rule="nonzero"/><path fill="#ffffff" d="M 0.488281 0 L 47.511719 0 L 47.511719 47.019531 L 0.488281 47.019531 Z M 0.488281 0 " fill-opacity="1" fill-rule="nonzero"/></g><g clip-path="url(#27bf6056dd)"><path fill="#000000" d="M 6.785156 16.488281 L 6.074219 16.488281 L 6.074219 5.582031 L 16.980469 5.582031 L 16.980469 6.296875 L 6.785156 6.296875 Z M 6.785156 16.488281 " fill-opacity="1" fill-rule="nonzero"/></g><g clip-path="url(#5267bd9a73)"><path fill="#000000" d="M 16.980469 42.320312 L 6.074219 42.320312 L 6.074219 31.410156 L 6.785156 31.410156 L 6.785156 41.605469 L 16.980469 41.605469 Z M 16.980469 42.320312 " fill-opacity="1" fill-rule="nonzero"/></g><g clip-path="url(#b0a4169a48)"><path fill="#000000" d="M 42.808594 16.488281 L 42.097656 16.488281 L 42.097656 6.296875 L 31.902344 6.296875 L 31.902344 5.582031 L 42.808594 5.582031 Z M 42.808594 16.488281 " fill-opacity="1" fill-rule="nonzero"/></g><g clip-path="url(#113d0a7aab)"><path fill="#000000" d="M 42.808594 42.320312 L 31.902344 42.320312 L 31.902344 41.605469 L 42.097656 41.605469 L 42.097656 31.410156 L 42.808594 31.410156 Z M 42.808594 42.320312 " fill-opacity="1" fill-rule="nonzero"/></g><path fill="#000000" d="M 16.761719 23.089844 C 16.761719 22.644531 16.761719 22.195312 16.761719 21.671875 C 16.277344 21.671875 15.839844 21.671875 15.367188 21.671875 C 15.367188 21.179688 15.367188 20.761719 15.367188 20.269531 C 17.207031 20.269531 19.066406 20.269531 21 20.269531 C 21 19.289062 21 18.378906 21 17.386719 C 21.539062 17.386719 22.003906 17.386719 22.46875 17.386719 L 22.449219 17.363281 C 22.449219 18.777344 22.449219 20.1875 22.449219 21.671875 C 21.945312 21.671875 21.511719 21.671875 21.078125 21.671875 C 21.078125 23.128906 21.078125 24.511719 21.078125 25.921875 C 21.574219 25.921875 22.019531 25.921875 22.46875 25.921875 C 22.46875 26.386719 22.46875 26.847656 22.46875 27.3125 C 22.980469 27.3125 23.410156 27.3125 23.835938 27.3125 C 23.835938 26.832031 23.835938 26.398438 23.835938 25.941406 C 23.339844 25.941406 22.894531 25.941406 22.445312 25.941406 C 22.445312 25.476562 22.445312 25.011719 22.445312 24.472656 C 22.992188 24.472656 23.429688 24.472656 23.910156 24.472656 C 23.910156 23.976562 23.910156 23.554688 23.910156 23.0625 C 24.398438 23.0625 24.835938 23.0625 25.324219 23.0625 C 25.324219 22.542969 25.324219 22.09375 25.324219 21.644531 L 25.304688 21.664062 C 25.785156 21.65625 26.265625 21.648438 26.75 21.640625 C 26.75 22.582031 26.75 23.515625 26.75 24.460938 C 27.257812 24.460938 27.691406 24.460938 28.117188 24.460938 C 28.117188 23.503906 28.117188 22.597656 28.117188 21.664062 C 27.621094 21.664062 27.175781 21.664062 26.726562 21.664062 C 26.726562 21.214844 26.726562 20.769531 26.726562 20.273438 C 28.160156 20.273438 29.542969 20.273438 31.03125 20.273438 C 31.03125 20.734375 31.03125 21.199219 31.03125 21.664062 C 30.570312 21.664062 30.105469 21.664062 29.640625 21.664062 C 29.640625 22.171875 29.640625 22.605469 29.640625 23.03125 C 30.121094 23.03125 30.554688 23.03125 31.011719 23.03125 C 31.011719 22.535156 31.011719 22.089844 31.011719 21.640625 C 31.460938 21.640625 31.90625 21.640625 32.429688 21.640625 C 32.429688 22.605469 32.429688 23.515625 32.429688 24.476562 C 32.9375 24.496094 33.375 24.515625 33.839844 24.535156 C 33.839844 24.996094 33.839844 25.414062 33.839844 25.90625 C 33.410156 25.90625 32.972656 25.90625 32.4375 25.90625 C 32.4375 26.917969 32.4375 27.859375 32.4375 28.796875 L 32.457031 28.777344 C 31.519531 28.777344 30.578125 28.777344 29.566406 28.777344 C 29.566406 28.265625 29.566406 27.828125 29.566406 27.320312 C 29.058594 27.320312 28.625 27.320312 28.140625 27.320312 C 28.140625 26.828125 28.140625 26.410156 28.140625 25.984375 C 27.652344 25.984375 27.21875 25.984375 26.710938 25.984375 C 26.710938 26.464844 26.710938 26.902344 26.710938 27.382812 C 26.21875 27.382812 25.796875 27.382812 25.308594 27.382812 C 25.308594 28.34375 25.308594 29.253906 25.308594 30.238281 C 24.796875 30.238281 24.363281 30.238281 23.878906 30.238281 C 23.878906 30.757812 23.878906 31.207031 23.878906 31.652344 L 23.898438 31.632812 C 23.433594 31.632812 22.964844 31.632812 22.453125 31.632812 C 22.453125 32.183594 22.453125 32.628906 22.453125 33.078125 L 22.472656 33.058594 C 22.023438 33.058594 21.578125 33.058594 21.0625 33.058594 C 21.0625 31.171875 21.0625 29.316406 21.0625 27.386719 C 19.613281 27.386719 18.226562 27.386719 16.765625 27.386719 C 16.765625 26.855469 16.765625 26.390625 16.765625 25.925781 L 16.746094 25.945312 C 17.679688 25.945312 18.617188 25.945312 19.5625 25.945312 C 19.5625 25.421875 19.5625 24.988281 19.5625 24.480469 C 19.085938 24.480469 18.648438 24.480469 18.167969 24.480469 C 18.167969 23.964844 18.167969 23.519531 18.167969 23.074219 C 18.632812 23.074219 19.09375 23.074219 19.5625 23.074219 C 19.5625 22.5625 19.5625 22.128906 19.5625 21.707031 C 19.078125 21.707031 18.644531 21.707031 18.1875 21.707031 C 18.1875 22.203125 18.1875 22.648438 18.1875 23.09375 C 17.707031 23.085938 17.226562 23.078125 16.742188 23.070312 Z M 29.636719 24.523438 C 29.636719 25.015625 29.636719 25.449219 29.636719 25.886719 C 30.113281 25.886719 30.546875 25.886719 30.964844 25.886719 C 30.964844 25.402344 30.964844 24.96875 30.964844 24.523438 C 30.507812 24.523438 30.109375 24.523438 29.636719 24.523438 Z M 29.636719 24.523438 " fill-opacity="1" fill-rule="nonzero"/><path fill="#000000" d="M 22.445312 34.503906 C 22.453125 34.023438 22.460938 33.539062 22.46875 33.058594 C 22.46875 33.058594 22.449219 33.078125 22.449219 33.078125 C 22.914062 33.078125 23.382812 33.078125 23.894531 33.078125 C 23.894531 32.53125 23.894531 32.082031 23.894531 31.632812 L 23.875 31.652344 C 24.339844 31.652344 24.804688 31.652344 25.335938 31.652344 C 25.335938 32.164062 25.335938 32.601562 25.335938 33.058594 C 25.855469 33.058594 26.300781 33.058594 26.75 33.058594 C 26.75 33.996094 26.75 34.9375 26.75 35.871094 C 27.261719 35.871094 27.695312 35.871094 28.15625 35.871094 C 28.15625 34.902344 28.15625 33.980469 28.15625 33.058594 C 28.636719 33.058594 29.121094 33.058594 29.601562 33.058594 C 29.601562 33.523438 29.601562 33.992188 29.601562 34.507812 C 30.132812 34.507812 30.578125 34.507812 31.027344 34.507812 L 31.007812 34.488281 C 31.007812 34.9375 31.007812 35.382812 31.007812 35.910156 C 30.539062 35.910156 30.101562 35.910156 29.628906 35.910156 C 29.628906 36.402344 29.628906 36.824219 29.628906 37.296875 C 30.527344 37.296875 31.4375 37.296875 32.425781 37.296875 C 32.425781 36.871094 32.425781 36.433594 32.425781 35.960938 C 32.921875 35.960938 33.339844 35.960938 33.835938 35.960938 C 33.835938 36.382812 33.835938 36.820312 33.835938 37.335938 C 34.824219 37.335938 35.738281 37.335938 36.6875 37.335938 C 36.6875 37.828125 36.6875 38.25 36.6875 38.722656 C 33.886719 38.722656 31.074219 38.722656 28.183594 38.722656 C 28.183594 38.300781 28.183594 37.863281 28.183594 37.386719 C 27.6875 37.386719 27.269531 37.386719 26.773438 37.386719 C 26.773438 37.808594 26.773438 38.246094 26.773438 38.726562 C 26.261719 38.726562 25.824219 38.726562 25.335938 38.726562 C 25.335938 38.300781 25.335938 37.878906 25.335938 37.40625 C 24.851562 37.40625 24.414062 37.40625 23.902344 37.40625 C 23.902344 37.824219 23.902344 38.261719 23.902344 38.738281 C 22.933594 38.738281 22.039062 38.738281 21.085938 38.738281 C 21.085938 37.367188 21.085938 35.980469 21.085938 34.484375 C 21.53125 34.484375 22 34.484375 22.464844 34.484375 C 22.464844 34.949219 22.464844 35.410156 22.464844 35.875 C 23.453125 35.875 24.359375 35.875 25.257812 35.875 C 25.257812 35.394531 25.257812 34.960938 25.257812 34.503906 C 24.285156 34.503906 23.367188 34.503906 22.445312 34.503906 Z M 22.445312 34.503906 " fill-opacity="1" fill-rule="nonzero"/><path fill="#000000" d="M 9.667969 8.847656 C 12.988281 8.847656 16.261719 8.847656 19.566406 8.847656 C 19.566406 12.148438 19.566406 15.417969 19.566406 18.746094 C 16.292969 18.746094 13.003906 18.746094 9.667969 18.746094 C 9.667969 15.476562 9.667969 12.191406 9.667969 8.847656 Z M 11.097656 10.273438 C 11.097656 12.667969 11.097656 15 11.097656 17.316406 C 13.484375 17.316406 15.820312 17.316406 18.140625 17.316406 C 18.140625 14.941406 18.140625 12.621094 18.140625 10.273438 C 15.785156 10.273438 13.464844 10.273438 11.097656 10.273438 Z M 11.097656 10.273438 " fill-opacity="1" fill-rule="nonzero"/><path fill="#000000" d="M 39.53125 18.769531 C 36.207031 18.769531 32.9375 18.769531 29.628906 18.769531 C 29.628906 15.46875 29.628906 12.199219 29.628906 8.871094 C 32.90625 8.871094 36.191406 8.871094 39.53125 8.871094 C 39.53125 12.140625 39.53125 15.425781 39.53125 18.769531 Z M 31.050781 17.335938 C 33.449219 17.335938 35.769531 17.335938 38.109375 17.335938 C 38.109375 14.964844 38.109375 12.628906 38.109375 10.292969 C 35.730469 10.292969 33.394531 10.292969 31.050781 10.292969 C 31.050781 12.660156 31.050781 14.980469 31.050781 17.335938 Z M 31.050781 17.335938 " fill-opacity="1" fill-rule="nonzero"/><path fill="#000000" d="M 9.667969 28.820312 C 12.988281 28.820312 16.261719 28.820312 19.566406 28.820312 C 19.566406 32.121094 19.566406 35.390625 19.566406 38.71875 C 16.296875 38.71875 13.007812 38.71875 9.667969 38.71875 C 9.667969 35.453125 9.667969 32.164062 9.667969 28.820312 Z M 18.136719 37.3125 C 18.136719 34.941406 18.136719 32.605469 18.136719 30.265625 C 15.757812 30.265625 13.421875 30.265625 11.097656 30.265625 C 11.097656 32.648438 11.097656 34.984375 11.097656 37.3125 C 13.472656 37.3125 15.792969 37.3125 18.136719 37.3125 Z M 18.136719 37.3125 " fill-opacity="1" fill-rule="nonzero"/><path fill="#000000" d="M 33.882812 28.800781 C 33.882812 28.351562 33.882812 27.902344 33.882812 27.378906 C 34.351562 27.378906 34.785156 27.378906 35.261719 27.378906 C 35.261719 25.917969 35.261719 24.53125 35.261719 23.097656 C 34.808594 23.097656 34.390625 23.097656 33.921875 23.097656 C 33.921875 22.609375 33.921875 22.175781 33.921875 21.664062 C 34.359375 21.664062 34.796875 21.664062 35.28125 21.664062 C 35.28125 21.171875 35.28125 20.75 35.28125 20.28125 C 35.765625 20.28125 36.203125 20.28125 36.714844 20.28125 C 36.714844 20.710938 36.714844 21.152344 36.714844 21.636719 C 37.683594 21.636719 38.578125 21.636719 39.523438 21.636719 C 39.523438 23.546875 39.523438 25.40625 39.523438 27.375 C 39.074219 27.375 38.609375 27.375 38.144531 27.375 C 38.144531 26.4375 38.144531 25.5 38.144531 24.558594 C 37.636719 24.558594 37.203125 24.558594 36.773438 24.558594 C 36.773438 25.511719 36.773438 26.421875 36.773438 27.355469 C 37.269531 27.355469 37.71875 27.355469 38.164062 27.355469 C 38.15625 27.835938 38.148438 28.316406 38.140625 28.800781 L 38.164062 28.78125 C 37.699219 28.78125 37.234375 28.78125 36.699219 28.78125 C 36.699219 29.3125 36.699219 29.746094 36.699219 30.226562 C 36.183594 30.226562 35.734375 30.226562 35.289062 30.226562 C 35.289062 29.761719 35.289062 29.296875 35.289062 28.78125 C 34.761719 28.78125 34.3125 28.78125 33.863281 28.78125 Z M 33.882812 28.800781 " fill-opacity="1" fill-rule="nonzero"/><path fill="#000000" d="M 22.46875 17.386719 C 22.46875 16.460938 22.46875 15.539062 22.46875 14.570312 C 22.9375 14.570312 23.371094 14.570312 23.859375 14.570312 C 23.859375 15 23.859375 15.417969 23.859375 15.894531 C 24.347656 15.894531 24.78125 15.894531 25.296875 15.894531 C 25.296875 15.472656 25.296875 15.035156 25.296875 14.546875 C 25.789062 14.546875 26.207031 14.546875 26.707031 14.546875 C 26.707031 14.0625 26.707031 13.625 26.707031 13.140625 C 27.214844 13.140625 27.652344 13.140625 28.128906 13.140625 C 28.128906 14.046875 28.128906 14.941406 28.128906 15.914062 C 27.707031 15.914062 27.269531 15.914062 26.726562 15.914062 C 26.726562 16.453125 26.726562 16.917969 26.726562 17.382812 L 26.746094 17.363281 C 26.300781 17.363281 25.851562 17.363281 25.300781 17.363281 C 25.300781 18.832031 25.300781 20.25 25.300781 21.664062 C 25.300781 21.664062 25.320312 21.644531 25.320312 21.644531 C 24.859375 21.644531 24.394531 21.644531 23.859375 21.644531 C 23.859375 20.179688 23.859375 18.792969 23.859375 17.363281 C 23.34375 17.363281 22.894531 17.363281 22.449219 17.363281 Z M 22.46875 17.386719 " fill-opacity="1" fill-rule="nonzero"/><path fill="#000000" d="M 12.484375 23.089844 C 12.484375 22.644531 12.484375 22.195312 12.484375 21.671875 C 11.519531 21.671875 10.609375 21.671875 9.660156 21.671875 C 9.660156 21.164062 9.660156 20.730469 9.660156 20.261719 C 11.054688 20.261719 12.425781 20.261719 13.84375 20.261719 C 13.84375 21.167969 13.84375 22.078125 13.84375 23.070312 C 13.390625 23.070312 12.929688 23.070312 12.464844 23.070312 Z M 12.484375 23.089844 " fill-opacity="1" fill-rule="nonzero"/><path fill="#000000" d="M 38.140625 28.800781 C 38.589844 28.800781 39.039062 28.800781 39.53125 28.800781 C 39.53125 30.210938 39.53125 31.59375 39.53125 33.058594 C 39.070312 33.058594 38.609375 33.058594 38.144531 33.058594 L 38.164062 33.078125 C 38.164062 31.644531 38.164062 30.214844 38.164062 28.78125 Z M 38.140625 28.800781 " fill-opacity="1" fill-rule="nonzero"/><path fill="#000000" d="M 12.464844 23.070312 C 12.464844 23.992188 12.464844 24.914062 12.464844 25.886719 C 12 25.886719 11.566406 25.886719 11.050781 25.886719 C 11.050781 25.449219 11.050781 25.011719 11.050781 24.527344 C 10.558594 24.527344 10.140625 24.527344 9.667969 24.527344 C 9.667969 24.042969 9.667969 23.609375 9.667969 23.089844 C 10.601562 23.089844 11.542969 23.089844 12.484375 23.089844 C 12.484375 23.089844 12.464844 23.070312 12.464844 23.070312 Z M 12.464844 23.070312 " fill-opacity="1" fill-rule="nonzero"/><path fill="#000000" d="M 26.769531 11.632812 C 26.769531 10.695312 26.769531 9.804688 26.769531 8.863281 C 27.214844 8.863281 27.648438 8.863281 28.125 8.863281 C 28.125 9.777344 28.125 10.6875 28.125 11.632812 C 27.683594 11.632812 27.265625 11.632812 26.769531 11.632812 Z M 26.769531 11.632812 " fill-opacity="1" fill-rule="nonzero"/><path fill="#000000" d="M 16.761719 25.925781 C 16.28125 25.925781 15.800781 25.921875 15.316406 25.921875 L 15.339844 25.945312 C 15.339844 25.019531 15.339844 24.097656 15.339844 23.089844 C 15.832031 23.089844 16.296875 23.089844 16.761719 23.089844 C 16.761719 23.089844 16.742188 23.074219 16.742188 23.074219 C 16.742188 24.03125 16.742188 24.988281 16.742188 25.945312 Z M 16.761719 25.925781 " fill-opacity="1" fill-rule="nonzero"/><path fill="#000000" d="M 25.285156 11.726562 C 25.285156 12.167969 25.285156 12.585938 25.285156 13.050781 C 24.832031 13.050781 24.398438 13.050781 23.925781 13.050781 C 23.925781 12.621094 23.925781 12.203125 23.925781 11.726562 C 24.339844 11.726562 24.773438 11.726562 25.285156 11.726562 Z M 25.285156 11.726562 " fill-opacity="1" fill-rule="nonzero"/><path fill="#000000" d="M 26.726562 17.382812 C 27.171875 17.382812 27.617188 17.382812 28.117188 17.382812 C 28.117188 17.839844 28.117188 18.273438 28.117188 18.753906 C 27.691406 18.753906 27.257812 18.753906 26.746094 18.753906 C 26.746094 18.292969 26.746094 17.828125 26.746094 17.363281 C 26.746094 17.363281 26.726562 17.382812 26.726562 17.382812 Z M 26.726562 17.382812 " fill-opacity="1" fill-rule="nonzero"/><path fill="#000000" d="M 32.433594 28.800781 C 32.917969 28.800781 33.398438 28.800781 33.882812 28.800781 C 33.882812 28.800781 33.863281 28.78125 33.863281 28.78125 C 33.871094 29.261719 33.875 29.746094 33.882812 30.226562 C 33.402344 30.226562 32.917969 30.226562 32.433594 30.226562 C 32.441406 29.746094 32.449219 29.261719 32.457031 28.78125 Z M 32.433594 28.800781 " fill-opacity="1" fill-rule="nonzero"/><path fill="#000000" d="M 15.316406 25.921875 C 15.316406 26.367188 15.316406 26.816406 15.316406 27.3125 C 14.859375 27.3125 14.425781 27.3125 13.945312 27.3125 C 13.945312 26.886719 13.945312 26.453125 13.945312 25.945312 C 14.410156 25.945312 14.875 25.945312 15.335938 25.945312 C 15.335938 25.945312 15.316406 25.921875 15.316406 25.921875 Z M 15.316406 25.921875 " fill-opacity="1" fill-rule="nonzero"/><path fill="#000000" d="M 33.882812 33.058594 C 33.402344 33.058594 32.917969 33.058594 32.4375 33.058594 L 32.457031 33.078125 C 32.449219 32.597656 32.441406 32.113281 32.4375 31.632812 C 32.917969 31.632812 33.402344 31.632812 33.882812 31.632812 C 33.875 32.113281 33.871094 32.597656 33.863281 33.078125 Z M 33.882812 33.058594 " fill-opacity="1" fill-rule="nonzero"/><path fill="#000000" d="M 25.253906 10.226562 C 24.796875 10.226562 24.394531 10.226562 23.9375 10.226562 C 23.9375 9.78125 23.9375 9.347656 23.9375 8.863281 C 24.359375 8.863281 24.792969 8.863281 25.253906 8.863281 C 25.253906 9.320312 25.253906 9.773438 25.253906 10.226562 Z M 25.253906 10.226562 " fill-opacity="1" fill-rule="nonzero"/><path fill="#000000" d="M 32.4375 33.058594 C 32.4375 33.507812 32.4375 33.953125 32.4375 34.488281 C 31.941406 34.488281 31.476562 34.488281 31.007812 34.488281 C 31.007812 34.488281 31.03125 34.503906 31.03125 34.503906 C 31.023438 34.023438 31.015625 33.542969 31.007812 33.058594 C 31.492188 33.066406 31.972656 33.070312 32.457031 33.078125 Z M 32.4375 33.058594 " fill-opacity="1" fill-rule="nonzero"/><path fill="#000000" d="M 35.308594 34.484375 C 34.859375 34.484375 34.414062 34.484375 33.882812 34.484375 C 33.882812 33.992188 33.882812 33.523438 33.882812 33.058594 C 33.882812 33.058594 33.863281 33.078125 33.863281 33.078125 C 34.347656 33.074219 34.828125 33.066406 35.308594 33.058594 C 35.304688 33.542969 35.296875 34.023438 35.292969 34.507812 Z M 35.308594 34.484375 " fill-opacity="1" fill-rule="nonzero"/><path fill="#000000" d="M 38.144531 33.058594 C 38.140625 33.539062 38.140625 34.023438 38.140625 34.503906 L 38.160156 34.484375 C 37.679688 34.484375 37.199219 34.484375 36.714844 34.484375 L 36.734375 34.507812 C 36.730469 34.023438 36.722656 33.542969 36.714844 33.058594 C 37.199219 33.066406 37.679688 33.074219 38.164062 33.078125 Z M 38.144531 33.058594 " fill-opacity="1" fill-rule="nonzero"/><path fill="#000000" d="M 21.046875 13.054688 C 21.046875 12.578125 21.046875 12.175781 21.046875 11.722656 C 21.492188 11.722656 21.925781 11.722656 22.410156 11.722656 C 22.410156 12.140625 22.410156 12.578125 22.410156 13.054688 C 21.972656 13.054688 21.539062 13.054688 21.046875 13.054688 Z M 21.046875 13.054688 " fill-opacity="1" fill-rule="nonzero"/><path fill="#000000" d="M 36.714844 34.484375 C 36.714844 34.933594 36.714844 35.378906 36.714844 35.875 C 36.257812 35.875 35.824219 35.875 35.308594 35.875 C 35.308594 35.414062 35.308594 34.949219 35.308594 34.484375 C 35.308594 34.484375 35.289062 34.507812 35.289062 34.507812 C 35.773438 34.507812 36.253906 34.507812 36.738281 34.507812 Z M 36.714844 34.484375 " fill-opacity="1" fill-rule="nonzero"/><path fill="#000000" d="M 38.140625 34.503906 C 38.585938 34.503906 39.03125 34.503906 39.53125 34.503906 C 39.53125 34.960938 39.53125 35.394531 39.53125 35.875 C 39.105469 35.875 38.671875 35.875 38.160156 35.875 C 38.160156 35.410156 38.160156 34.949219 38.160156 34.484375 C 38.160156 34.484375 38.140625 34.503906 38.140625 34.503906 Z M 38.140625 34.503906 " fill-opacity="1" fill-rule="nonzero"/><path fill="#000000" d="M 39.546875 37.398438 C 39.546875 37.871094 39.546875 38.289062 39.546875 38.742188 C 39.097656 38.742188 38.679688 38.742188 38.207031 38.742188 C 38.207031 38.316406 38.207031 37.882812 38.207031 37.398438 C 38.625 37.398438 39.058594 37.398438 39.546875 37.398438 Z M 39.546875 37.398438 " fill-opacity="1" fill-rule="nonzero"/><path fill="#000000" d="M 32.457031 31.652344 C 32.007812 31.652344 31.558594 31.652344 31.027344 31.652344 C 31.027344 32.148438 31.027344 32.613281 31.027344 33.078125 C 30.546875 33.078125 30.066406 33.078125 29.582031 33.078125 C 29.582031 32.15625 29.582031 31.234375 29.582031 30.207031 C 30.574219 30.207031 31.515625 30.207031 32.457031 30.207031 C 32.457031 30.6875 32.457031 31.167969 32.457031 31.652344 Z M 32.457031 31.652344 " fill-opacity="1" fill-rule="nonzero"/><path fill="#000000" d="M 28.136719 28.824219 C 28.136719 29.28125 28.136719 29.699219 28.136719 30.167969 C 27.695312 30.167969 27.257812 30.167969 26.78125 30.167969 C 26.78125 29.730469 26.78125 29.296875 26.78125 28.824219 C 27.21875 28.824219 27.636719 28.824219 28.136719 28.824219 Z M 28.136719 28.824219 " fill-opacity="1" fill-rule="nonzero"/><path fill="#000000" d="M 28.175781 33.078125 C 27.695312 33.078125 27.210938 33.078125 26.730469 33.078125 C 26.730469 32.632812 26.730469 32.1875 26.730469 31.691406 C 27.207031 31.691406 27.640625 31.691406 28.175781 31.691406 C 28.175781 32.152344 28.175781 32.613281 28.175781 33.078125 Z M 28.175781 33.078125 " fill-opacity="1" fill-rule="nonzero"/><path fill="#000000" d="M 12.523438 11.699219 C 13.941406 11.699219 15.308594 11.699219 16.714844 11.699219 C 16.714844 13.097656 16.714844 14.464844 16.714844 15.890625 C 15.34375 15.890625 13.960938 15.890625 12.523438 15.890625 C 12.523438 14.527344 12.523438 13.140625 12.523438 11.699219 Z M 12.523438 11.699219 " fill-opacity="1" fill-rule="nonzero"/><path fill="#000000" d="M 32.496094 11.703125 C 33.917969 11.703125 35.285156 11.703125 36.691406 11.703125 C 36.691406 13.101562 36.691406 14.46875 36.691406 15.894531 C 35.316406 15.894531 33.929688 15.894531 32.496094 15.894531 C 32.496094 14.523438 32.496094 13.136719 32.496094 11.703125 Z M 32.496094 11.703125 " fill-opacity="1" fill-rule="nonzero"/><path fill="#000000" d="M 12.527344 31.667969 C 13.929688 31.667969 15.296875 31.667969 16.707031 31.667969 C 16.707031 33.078125 16.707031 34.464844 16.707031 35.886719 C 15.320312 35.886719 13.953125 35.886719 12.527344 35.886719 C 12.527344 34.511719 12.527344 33.128906 12.527344 31.667969 Z M 12.527344 31.667969 " fill-opacity="1" fill-rule="nonzero"/><path fill="#000000" d="M 35.308594 31.652344 C 34.828125 31.652344 34.34375 31.652344 33.863281 31.652344 C 33.863281 31.167969 33.863281 30.6875 33.863281 30.207031 C 34.34375 30.207031 34.828125 30.207031 35.308594 30.207031 C 35.308594 30.6875 35.308594 31.167969 35.308594 31.652344 Z M 35.308594 31.652344 " fill-opacity="1" fill-rule="nonzero"/><path fill="#000000" d="M 36.734375 33.078125 C 36.253906 33.078125 35.773438 33.078125 35.289062 33.078125 C 35.289062 32.597656 35.289062 32.113281 35.289062 31.632812 C 35.738281 31.632812 36.183594 31.632812 36.734375 31.632812 C 36.734375 32.148438 36.734375 32.613281 36.734375 33.078125 Z M 36.734375 33.078125 " fill-opacity="1" fill-rule="nonzero"/></svg>